<?xml version="1.0" encoding="UTF-8"?>
<svg width="529px" height="275px" viewBox="0 0 529 275" version="1.1" xmlns="http://www.w3.org/2000/svg" xmlns:xlink="http://www.w3.org/1999/xlink">
    <!-- Generator: Sketch 42 (36781) - http://www.bohemiancoding.com/sketch -->
    <title>talktime copy</title>
    <desc>Created with Sketch.</desc>
    <defs>
        <rect id="path-1" x="268.75" y="71.25" width="191.25" height="168.75"></rect>
        <mask id="mask-2" maskContentUnits="userSpaceOnUse" maskUnits="objectBoundingBox" x="0" y="0" width="191.25" height="168.75" fill="white">
            <use xlink:href="#path-1"></use>
        </mask>
        <rect id="path-3" x="51.25" y="206.25" width="191.25" height="33.75"></rect>
        <mask id="mask-4" maskContentUnits="userSpaceOnUse" maskUnits="objectBoundingBox" x="0" y="0" width="191.25" height="33.75" fill="white">
            <use xlink:href="#path-3"></use>
        </mask>
    </defs>
    <g id="Page-1" stroke="none" stroke-width="1" fill="none" fill-rule="evenodd">
        <g id="talktime-copy">
            <g id="Group" transform="translate(11.250000, 5.000000)">
                <rect id="Rectangle-2-Copy-2" fill-opacity="0.653532609" fill="#83DC87" opacity="0.56" x="38.75" y="171.25" width="230" height="68.75"></rect>
                <path d="M87.8295898,257.297607 C87.8295898,257.126708 87.8039553,256.96578 87.7526855,256.814819 C87.7014158,256.663858 87.6003019,256.521444 87.4493408,256.387573 C87.2983798,256.253702 87.0833347,256.129802 86.8041992,256.015869 C86.5250637,255.901936 86.1576357,255.79655 85.7019043,255.699707 C85.1892064,255.591471 84.7277853,255.463298 84.317627,255.315186 C83.9074687,255.167073 83.5585545,254.989055 83.270874,254.781128 C82.9831935,254.5732 82.7624519,254.326824 82.6086426,254.041992 C82.4548332,253.75716 82.3779297,253.423911 82.3779297,253.042236 C82.3779297,252.677651 82.4591056,252.331585 82.62146,252.004028 C82.7838143,251.676471 83.0131007,251.388795 83.3093262,251.140991 C83.6055516,250.893187 83.9644347,250.696656 84.3859863,250.551392 C84.8075379,250.406127 85.2775039,250.333496 85.7958984,250.333496 C86.3484728,250.333496 86.8426492,250.408975 87.2784424,250.559937 C87.7142356,250.710898 88.0845118,250.917398 88.3892822,251.179443 C88.6940526,251.441489 88.9261874,251.747679 89.0856934,252.098022 C89.2451994,252.448366 89.3249512,252.822915 89.3249512,253.22168 L87.7355957,253.22168 C87.7355957,253.03369 87.6928715,252.84428 87.6074219,252.653442 C87.5219722,252.462605 87.396648,252.291708 87.2314453,252.140747 C87.0662427,251.989786 86.8640149,251.86731 86.6247559,251.773315 C86.3854969,251.679321 86.1092138,251.632324 85.7958984,251.632324 C85.4654931,251.632324 85.1849377,251.670776 84.9542236,251.747681 C84.7235096,251.824585 84.534099,251.927123 84.3859863,252.055298 C84.2378736,252.183472 84.129639,252.328735 84.0612793,252.491089 C83.9929196,252.653443 83.9587402,252.820068 83.9587402,252.990967 C83.9587402,253.161866 83.987223,253.315673 84.0441895,253.452393 C84.1011559,253.589112 84.2093905,253.713012 84.3688965,253.824097 C84.5284025,253.935181 84.7462958,254.037719 85.022583,254.131714 C85.2988702,254.225708 85.6563292,254.321126 86.0949707,254.417969 C86.6589384,254.548992 87.1488423,254.697102 87.5646973,254.862305 C87.9805522,255.027507 88.3251939,255.219766 88.5986328,255.439087 C88.8720717,255.658408 89.0757236,255.91048 89.2095947,256.195312 C89.3434658,256.480145 89.4104004,256.810545 89.4104004,257.186523 C89.4104004,257.590985 89.3263762,257.961261 89.1583252,258.297363 C88.9902742,258.633465 88.7495947,258.921141 88.4362793,259.1604 C88.1229639,259.399659 87.7469911,259.586222 87.3083496,259.720093 C86.8697081,259.853964 86.3826524,259.920898 85.847168,259.920898 C85.2319305,259.920898 84.6893334,259.83545 84.2193604,259.664551 C83.7493873,259.493651 83.3549007,259.267213 83.0358887,258.985229 C82.7168767,258.703246 82.474773,258.38139 82.3095703,258.019653 C82.1443677,257.657916 82.0617676,257.286216 82.0617676,256.904541 L83.6425781,256.904541 C83.6596681,257.22925 83.7379957,257.50126 83.8775635,257.720581 C84.0171312,257.939902 84.1923004,258.117919 84.4030762,258.254639 C84.613852,258.391358 84.8445625,258.4882 85.0952148,258.545166 C85.3458671,258.602132 85.5965157,258.630615 85.847168,258.630615 C86.1718766,258.630615 86.4567045,258.596436 86.7016602,258.528076 C86.9466158,258.459716 87.153116,258.365723 87.321167,258.246094 C87.489218,258.126464 87.6159664,257.985474 87.701416,257.82312 C87.7868657,257.660766 87.8295898,257.485597 87.8295898,257.297607 Z M93.614502,248.265625 L93.614502,250.504395 L95.3405762,250.504395 L95.3405762,251.726318 L93.614502,251.726318 L93.614502,257.459961 C93.614502,257.69922 93.6429847,257.891479 93.6999512,258.036743 C93.7569176,258.182008 93.832397,258.294515 93.9263916,258.374268 C94.0203862,258.454021 94.1286208,258.506714 94.2510986,258.532349 C94.3735765,258.557984 94.5003249,258.570801 94.6313477,258.570801 C94.7623704,258.570801 94.900512,258.557984 95.0457764,258.532349 C95.1910408,258.506714 95.3035478,258.485352 95.3833008,258.468262 L95.3833008,259.75 C95.2579746,259.78418 95.0956227,259.821207 94.8962402,259.861084 C94.6968577,259.90096 94.454754,259.920898 94.1699219,259.920898 C93.8793931,259.920898 93.6045342,259.879598 93.3453369,259.796997 C93.0861397,259.714396 92.8597015,259.576254 92.6660156,259.382568 C92.4723298,259.188882 92.3185227,258.933962 92.2045898,258.617798 C92.090657,258.301634 92.0336914,257.912844 92.0336914,257.451416 L92.0336914,251.726318 L90.3503418,251.726318 L90.3503418,250.504395 L92.0336914,250.504395 L92.0336914,248.265625 L93.614502,248.265625 Z M102.894287,258.835693 C102.603758,259.177492 102.23633,259.443806 101.791992,259.634644 C101.347654,259.825481 100.812178,259.920898 100.185547,259.920898 C99.7298154,259.920898 99.316815,259.856812 98.9465332,259.728638 C98.5762514,259.600463 98.2572442,259.398235 97.989502,259.121948 C97.7217597,258.845661 97.5152595,258.489626 97.3699951,258.053833 C97.2247307,257.61804 97.1520996,257.092532 97.1520996,256.477295 L97.1520996,250.504395 L98.7329102,250.504395 L98.7329102,256.494385 C98.7329102,256.91024 98.7813309,257.253457 98.8781738,257.524048 C98.9750168,257.794638 99.1031893,258.008259 99.2626953,258.164917 C99.4222013,258.321575 99.6044912,258.429809 99.8095703,258.489624 C100.014649,258.549439 100.225422,258.579346 100.441895,258.579346 C101.085615,258.579346 101.602578,258.45687 101.992798,258.211914 C102.383018,257.966958 102.66927,257.639406 102.851562,257.229248 L102.851562,250.504395 L104.432373,250.504395 L104.432373,259.75 L102.928467,259.75 L102.894287,258.835693 Z M106.448975,255.050293 C106.448975,254.343909 106.535847,253.701622 106.709595,253.123413 C106.883342,252.545204 107.129718,252.049603 107.44873,251.636597 C107.767742,251.22359 108.150836,250.903159 108.598022,250.675293 C109.045209,250.447427 109.545082,250.333496 110.097656,250.333496 C110.661624,250.333496 111.154376,250.428913 111.575928,250.619751 C111.997479,250.810589 112.362059,251.085447 112.669678,251.444336 L112.669678,246.625 L114.250488,246.625 L114.250488,259.75 L112.797852,259.75 L112.720947,258.758789 C112.413329,259.134768 112.043052,259.422444 111.610107,259.621826 C111.177163,259.821209 110.667321,259.920898 110.080566,259.920898 C109.539385,259.920898 109.045209,259.804119 108.598022,259.570557 C108.150836,259.336994 107.767742,259.010866 107.44873,258.592163 C107.129718,258.17346 106.883342,257.677859 106.709595,257.105347 C106.535847,256.532834 106.448975,255.907637 106.448975,255.229736 L106.448975,255.050293 Z M108.029785,255.229736 C108.029785,255.691164 108.076782,256.125527 108.170776,256.532837 C108.264771,256.940147 108.411457,257.294758 108.61084,257.59668 C108.810222,257.898602 109.063719,258.137857 109.371338,258.314453 C109.678957,258.491049 110.046385,258.579346 110.473633,258.579346 C110.752768,258.579346 111.003417,258.54659 111.225586,258.481079 C111.447755,258.415568 111.648559,258.322999 111.828003,258.203369 C112.007447,258.08374 112.166951,257.941326 112.306519,257.776123 C112.446086,257.61092 112.567138,257.428631 112.669678,257.229248 L112.669678,252.982422 C112.567138,252.794433 112.44751,252.620688 112.310791,252.461182 C112.174072,252.301676 112.015992,252.163534 111.836548,252.046753 C111.657104,251.929972 111.4563,251.838827 111.234131,251.773315 C111.011962,251.707804 110.764162,251.675049 110.490723,251.675049 C110.057778,251.675049 109.686077,251.76477 109.37561,251.944214 C109.065143,252.123658 108.810222,252.367186 108.61084,252.674805 C108.411457,252.982423 108.264771,253.339882 108.170776,253.747192 C108.076782,254.154502 108.029785,254.588865 108.029785,255.050293 L108.029785,255.229736 Z M120.539551,259.920898 C119.89583,259.920898 119.313357,259.809816 118.792114,259.587646 C118.270871,259.365477 117.825116,259.056439 117.454834,258.660522 C117.084552,258.264606 116.799724,257.793216 116.600342,257.246338 C116.400959,256.69946 116.30127,256.101322 116.30127,255.451904 L116.30127,255.093018 C116.30127,254.341061 116.413777,253.668867 116.638794,253.076416 C116.863811,252.483965 117.164305,251.985516 117.540283,251.581055 C117.916262,251.176593 118.346352,250.867555 118.830566,250.653931 C119.314781,250.440307 119.818926,250.333496 120.343018,250.333496 C121.003828,250.333496 121.573484,250.448851 122.052002,250.679565 C122.53052,250.910279 122.925007,251.227863 123.235474,251.632324 C123.545941,252.036786 123.775227,252.515297 123.92334,253.067871 C124.071453,253.620445 124.145508,254.221432 124.145508,254.87085 L124.145508,255.580078 L117.88208,255.580078 C117.893473,256.007326 117.963256,256.406085 118.091431,256.776367 C118.219605,257.146649 118.401895,257.468504 118.638306,257.741943 C118.874716,258.015382 119.159544,258.231851 119.492798,258.391357 C119.826051,258.550863 120.203448,258.630615 120.625,258.630615 C121.183271,258.630615 121.656085,258.516684 122.043457,258.288818 C122.430829,258.060953 122.769774,257.759035 123.060303,257.383057 L124.025879,258.13501 C123.877766,258.362875 123.698325,258.583617 123.487549,258.797241 C123.276773,259.010865 123.030397,259.2017 122.748413,259.369751 C122.466429,259.537802 122.14315,259.671671 121.778564,259.771362 C121.413979,259.871054 121.000979,259.920898 120.539551,259.920898 Z M120.343018,251.632324 C120.024006,251.632324 119.730633,251.690714 119.462891,251.807495 C119.195148,251.924276 118.955893,252.093749 118.745117,252.315918 C118.534341,252.538087 118.359172,252.81437 118.219604,253.144775 C118.080037,253.475181 117.984619,253.854002 117.93335,254.28125 L122.564697,254.28125 L122.564697,254.161621 C122.547607,253.854002 122.497762,253.549237 122.415161,253.247314 C122.33256,252.945392 122.204387,252.674806 122.03064,252.435547 C121.856892,252.196288 121.633302,252.002605 121.359863,251.854492 C121.086424,251.706379 120.747479,251.632324 120.343018,251.632324 Z M127.469482,250.504395 L127.520752,251.666504 C127.851157,251.250649 128.249916,250.924521 128.717041,250.68811 C129.184166,250.4517 129.708249,250.333496 130.289307,250.333496 C130.739341,250.333496 131.146645,250.394734 131.51123,250.517212 C131.875816,250.63969 132.186278,250.836221 132.442627,251.106812 C132.698976,251.377402 132.896931,251.724892 133.036499,252.149292 C133.176067,252.573692 133.24585,253.087806 133.24585,253.69165 L133.24585,259.75 L131.665039,259.75 L131.665039,253.674561 C131.665039,253.315672 131.625163,253.009482 131.54541,252.755981 C131.465657,252.502481 131.347454,252.295981 131.190796,252.136475 C131.034138,251.976969 130.840455,251.860189 130.609741,251.786133 C130.379027,251.712076 130.112713,251.675049 129.810791,251.675049 C129.298093,251.675049 128.848065,251.811766 128.460693,252.085205 C128.073322,252.358644 127.771404,252.717527 127.554932,253.161865 L127.554932,259.75 L125.974121,259.75 L125.974121,250.504395 L127.469482,250.504395 Z M137.774658,248.265625 L137.774658,250.504395 L139.500732,250.504395 L139.500732,251.726318 L137.774658,251.726318 L137.774658,257.459961 C137.774658,257.69922 137.803141,257.891479 137.860107,258.036743 C137.917074,258.182008 137.992553,258.294515 138.086548,258.374268 C138.180542,258.454021 138.288777,258.506714 138.411255,258.532349 C138.533733,258.557984 138.660481,258.570801 138.791504,258.570801 C138.922527,258.570801 139.060668,258.557984 139.205933,258.532349 C139.351197,258.506714 139.463704,258.485352 139.543457,258.468262 L139.543457,259.75 C139.418131,259.78418 139.255779,259.821207 139.056396,259.861084 C138.857014,259.90096 138.61491,259.920898 138.330078,259.920898 C138.039549,259.920898 137.76469,259.879598 137.505493,259.796997 C137.246296,259.714396 137.019858,259.576254 136.826172,259.382568 C136.632486,259.188882 136.478679,258.933962 136.364746,258.617798 C136.250813,258.301634 136.193848,257.912844 136.193848,257.451416 L136.193848,251.726318 L134.510498,251.726318 L134.510498,250.504395 L136.193848,250.504395 L136.193848,248.265625 L137.774658,248.265625 Z M147.823486,248.265625 L147.823486,250.504395 L149.549561,250.504395 L149.549561,251.726318 L147.823486,251.726318 L147.823486,257.459961 C147.823486,257.69922 147.851969,257.891479 147.908936,258.036743 C147.965902,258.182008 148.041381,258.294515 148.135376,258.374268 C148.229371,258.454021 148.337605,258.506714 148.460083,258.532349 C148.582561,258.557984 148.709309,258.570801 148.840332,258.570801 C148.971355,258.570801 149.109496,258.557984 149.254761,258.532349 C149.400025,258.506714 149.512532,258.485352 149.592285,258.468262 L149.592285,259.75 C149.466959,259.78418 149.304607,259.821207 149.105225,259.861084 C148.905842,259.90096 148.663738,259.920898 148.378906,259.920898 C148.088377,259.920898 147.813519,259.879598 147.554321,259.796997 C147.295124,259.714396 147.068686,259.576254 146.875,259.382568 C146.681314,259.188882 146.527507,258.933962 146.413574,258.617798 C146.299641,258.301634 146.242676,257.912844 146.242676,257.451416 L146.242676,251.726318 L144.559326,251.726318 L144.559326,250.504395 L146.242676,250.504395 L146.242676,248.265625 L147.823486,248.265625 Z M157.103271,259.75 C157.046305,259.636067 157.000733,259.492229 156.966553,259.318481 C156.932373,259.144734 156.90389,258.963868 156.881104,258.775879 C156.732991,258.929688 156.566366,259.076375 156.381226,259.215942 C156.196085,259.35551 155.993857,259.477986 155.774536,259.583374 C155.555215,259.688762 155.317384,259.771362 155.061035,259.831177 C154.804686,259.890992 154.5341,259.920898 154.249268,259.920898 C153.776446,259.920898 153.34778,259.849691 152.963257,259.707275 C152.578733,259.564859 152.251181,259.371176 151.980591,259.126221 C151.71,258.881265 151.500652,258.592165 151.352539,258.258911 C151.204426,257.925658 151.130371,257.568199 151.130371,257.186523 C151.130371,256.690915 151.227213,256.253705 151.420898,255.874878 C151.614584,255.496051 151.892291,255.178468 152.254028,254.922119 C152.615765,254.66577 153.052976,254.472087 153.565674,254.341064 C154.078372,254.210042 154.650876,254.144531 155.283203,254.144531 L156.855469,254.144531 L156.855469,253.418213 C156.855469,252.865639 156.690269,252.425579 156.359863,252.098022 C156.029458,251.770465 155.542402,251.606689 154.898682,251.606689 C154.602456,251.606689 154.33187,251.646565 154.086914,251.726318 C153.841958,251.806071 153.63261,251.912882 153.458862,252.046753 C153.285115,252.180624 153.149821,252.335855 153.052979,252.512451 C152.956136,252.689047 152.907715,252.874185 152.907715,253.067871 L151.318359,253.067871 C151.318359,252.737466 151.405232,252.409914 151.578979,252.085205 C151.752727,251.760496 151.999103,251.468548 152.318115,251.209351 C152.637127,250.950153 153.023069,250.739381 153.475952,250.577026 C153.928835,250.414672 154.434405,250.333496 154.992676,250.333496 C155.49398,250.333496 155.956826,250.397582 156.381226,250.525757 C156.805625,250.653931 157.168781,250.847614 157.470703,251.106812 C157.772625,251.366009 158.009032,251.689288 158.179932,252.07666 C158.350831,252.464032 158.436279,252.916908 158.436279,253.435303 L158.436279,257.733398 C158.436279,258.046714 158.463338,258.37569 158.517456,258.720337 C158.571574,259.064984 158.65275,259.362629 158.760986,259.613281 L158.760986,259.75 L157.103271,259.75 Z M154.47998,258.545166 C154.764813,258.545166 155.032551,258.50529 155.283203,258.425537 C155.533855,258.345784 155.761718,258.241822 155.966797,258.113647 C156.171876,257.985473 156.349893,257.838787 156.500854,257.673584 C156.651816,257.508381 156.770019,257.337485 156.855469,257.160889 L156.855469,255.263916 L155.539551,255.263916 C154.633785,255.263916 153.935956,255.404906 153.446045,255.68689 C152.956134,255.968873 152.711182,256.394691 152.711182,256.964355 C152.711182,257.186525 152.748209,257.394449 152.822266,257.588135 C152.896322,257.781821 153.008829,257.948445 153.15979,258.088013 C153.310751,258.22758 153.495889,258.338663 153.71521,258.421265 C153.934531,258.503866 154.189452,258.545166 154.47998,258.545166 Z M162.631836,259.75 L161.051025,259.75 L161.051025,246.625 L162.631836,246.625 L162.631836,259.75 Z M167.741699,255.468994 L166.750488,256.50293 L166.750488,259.75 L165.169678,259.75 L165.169678,246.625 L166.750488,246.625 L166.750488,254.563232 L167.596436,253.546387 L170.476074,250.504395 L172.398682,250.504395 L168.80127,254.366699 L172.817383,259.75 L170.963135,259.75 L167.741699,255.468994 Z M180.507812,248.265625 L180.507812,250.504395 L182.233887,250.504395 L182.233887,251.726318 L180.507812,251.726318 L180.507812,257.459961 C180.507812,257.69922 180.536295,257.891479 180.593262,258.036743 C180.650228,258.182008 180.725708,258.294515 180.819702,258.374268 C180.913697,258.454021 181.021931,258.506714 181.144409,258.532349 C181.266887,258.557984 181.393635,258.570801 181.524658,258.570801 C181.655681,258.570801 181.793823,258.557984 181.939087,258.532349 C182.084351,258.506714 182.196858,258.485352 182.276611,258.468262 L182.276611,259.75 C182.151285,259.78418 181.988933,259.821207 181.789551,259.861084 C181.590168,259.90096 181.348065,259.920898 181.063232,259.920898 C180.772704,259.920898 180.497845,259.879598 180.238647,259.796997 C179.97945,259.714396 179.753012,259.576254 179.559326,259.382568 C179.36564,259.188882 179.211833,258.933962 179.0979,258.617798 C178.983968,258.301634 178.927002,257.912844 178.927002,257.451416 L178.927002,251.726318 L177.243652,251.726318 L177.243652,250.504395 L178.927002,250.504395 L178.927002,248.265625 L180.507812,248.265625 Z M185.797119,259.75 L184.216309,259.75 L184.216309,250.504395 L185.797119,250.504395 L185.797119,259.75 Z M184.088135,248.052002 C184.088135,247.795653 184.166462,247.579184 184.32312,247.402588 C184.479778,247.225992 184.711913,247.137695 185.019531,247.137695 C185.32715,247.137695 185.560709,247.225992 185.720215,247.402588 C185.879721,247.579184 185.959473,247.795653 185.959473,248.052002 C185.959473,248.308351 185.879721,248.521972 185.720215,248.692871 C185.560709,248.86377 185.32715,248.949219 185.019531,248.949219 C184.711913,248.949219 184.479778,248.86377 184.32312,248.692871 C184.166462,248.521972 184.088135,248.308351 184.088135,248.052002 Z M189.813232,250.504395 L189.855957,251.529785 C190.174969,251.153807 190.560911,250.860434 191.013794,250.649658 C191.466677,250.438882 191.995033,250.333496 192.598877,250.333496 C193.197024,250.333496 193.72538,250.4517 194.18396,250.68811 C194.64254,250.924521 194.994302,251.301918 195.239258,251.820312 C195.546877,251.375974 195.94706,251.017091 196.439819,250.743652 C196.932579,250.470213 197.515052,250.333496 198.187256,250.333496 C198.682864,250.333496 199.121499,250.397582 199.503174,250.525757 C199.884849,250.653931 200.208129,250.854735 200.473022,251.128174 C200.737916,251.401613 200.93872,251.749103 201.075439,252.170654 C201.212159,252.592206 201.280518,253.093503 201.280518,253.674561 L201.280518,259.75 L199.699707,259.75 L199.699707,253.666016 C199.699707,253.278644 199.65271,252.956788 199.558716,252.700439 C199.464721,252.444091 199.332276,252.239014 199.161377,252.085205 C198.990478,251.931396 198.782553,251.824585 198.537598,251.764771 C198.292642,251.704956 198.022056,251.675049 197.72583,251.675049 C197.401121,251.675049 197.113445,251.726318 196.862793,251.828857 C196.612141,251.931397 196.397096,252.069539 196.217651,252.243286 C196.038207,252.417034 195.895793,252.62211 195.790405,252.858521 C195.685017,253.094931 195.618083,253.347004 195.5896,253.614746 L195.5896,259.75 L194.000244,259.75 L194.000244,253.674561 C194.000244,253.315672 193.953248,253.009482 193.859253,252.755981 C193.765258,252.502481 193.632813,252.295981 193.461914,252.136475 C193.291015,251.976969 193.084515,251.860189 192.842407,251.786133 C192.6003,251.712076 192.328289,251.675049 192.026367,251.675049 C191.4624,251.675049 191.009523,251.797525 190.667725,252.04248 C190.325926,252.287436 190.069581,252.606443 189.898682,252.999512 L189.898682,259.75 L188.317871,259.75 L188.317871,250.504395 L189.813232,250.504395 Z M207.501221,259.920898 C206.8575,259.920898 206.275027,259.809816 205.753784,259.587646 C205.232541,259.365477 204.786786,259.056439 204.416504,258.660522 C204.046222,258.264606 203.761394,257.793216 203.562012,257.246338 C203.362629,256.69946 203.262939,256.101322 203.262939,255.451904 L203.262939,255.093018 C203.262939,254.341061 203.375446,253.668867 203.600464,253.076416 C203.825481,252.483965 204.125975,251.985516 204.501953,251.581055 C204.877932,251.176593 205.308022,250.867555 205.792236,250.653931 C206.276451,250.440307 206.780596,250.333496 207.304688,250.333496 C207.965498,250.333496 208.535154,250.448851 209.013672,250.679565 C209.49219,250.910279 209.886677,251.227863 210.197144,251.632324 C210.507611,252.036786 210.736897,252.515297 210.88501,253.067871 C211.033122,253.620445 211.107178,254.221432 211.107178,254.87085 L211.107178,255.580078 L204.84375,255.580078 C204.855143,256.007326 204.924926,256.406085 205.053101,256.776367 C205.181275,257.146649 205.363565,257.468504 205.599976,257.741943 C205.836386,258.015382 206.121214,258.231851 206.454468,258.391357 C206.787721,258.550863 207.165118,258.630615 207.58667,258.630615 C208.144941,258.630615 208.617755,258.516684 209.005127,258.288818 C209.392499,258.060953 209.731444,257.759035 210.021973,257.383057 L210.987549,258.13501 C210.839436,258.362875 210.659995,258.583617 210.449219,258.797241 C210.238443,259.010865 209.992067,259.2017 209.710083,259.369751 C209.428099,259.537802 209.10482,259.671671 208.740234,259.771362 C208.375649,259.871054 207.962649,259.920898 207.501221,259.920898 Z M207.304688,251.632324 C206.985675,251.632324 206.692303,251.690714 206.424561,251.807495 C206.156818,251.924276 205.917563,252.093749 205.706787,252.315918 C205.496011,252.538087 205.320842,252.81437 205.181274,253.144775 C205.041707,253.475181 204.946289,253.854002 204.89502,254.28125 L209.526367,254.28125 L209.526367,254.161621 C209.509277,253.854002 209.459432,253.549237 209.376831,253.247314 C209.29423,252.945392 209.166057,252.674806 208.99231,252.435547 C208.818562,252.196288 208.594972,252.002605 208.321533,251.854492 C208.048094,251.706379 207.709149,251.632324 207.304688,251.632324 Z" id="student-talk-time" fill="#000000"></path>
                <path d="M315.471191,257.434326 L317.624512,250.504395 L319.316406,250.504395 L315.599365,261.177002 C315.513916,261.404868 315.402833,261.652668 315.266113,261.92041 C315.129394,262.188152 314.951376,262.437377 314.732056,262.668091 C314.512735,262.898805 314.249269,263.092488 313.94165,263.249146 C313.634032,263.405803 313.2723,263.484131 312.856445,263.484131 C312.793782,263.484131 312.719727,263.478434 312.634277,263.467041 C312.548828,263.455648 312.463379,263.44283 312.37793,263.428589 C312.29248,263.414347 312.212728,263.400106 312.138672,263.385864 C312.064616,263.371623 312.00765,263.358805 311.967773,263.347412 L311.967773,262.065674 C311.99056,262.07137 312.021891,262.075643 312.061768,262.078491 C312.101644,262.08134 312.142944,262.084188 312.185669,262.087036 C312.228394,262.089884 312.26827,262.092733 312.305298,262.095581 C312.342326,262.098429 312.372233,262.099854 312.39502,262.099854 C312.662762,262.099854 312.899169,262.074219 313.104248,262.022949 C313.309327,261.971679 313.491617,261.887655 313.651123,261.770874 C313.810629,261.654093 313.948771,261.498862 314.065552,261.305176 C314.182333,261.11149 314.289143,260.872234 314.385986,260.587402 L314.736328,259.647461 L311.437988,250.504395 L313.164062,250.504395 L315.471191,257.434326 Z M320.179443,255.041748 C320.179443,254.369544 320.277709,253.747195 320.474243,253.174683 C320.670777,252.60217 320.949909,252.105145 321.311646,251.683594 C321.673382,251.262042 322.113441,250.931642 322.631836,250.692383 C323.15023,250.453124 323.731279,250.333496 324.375,250.333496 C325.030114,250.333496 325.618284,250.453124 326.139526,250.692383 C326.660769,250.931642 327.103677,251.262042 327.468262,251.683594 C327.832847,252.105145 328.111978,252.60217 328.305664,253.174683 C328.49935,253.747195 328.596191,254.369544 328.596191,255.041748 L328.596191,255.229736 C328.596191,255.90194 328.49935,256.524289 328.305664,257.096802 C328.111978,257.669314 327.832847,258.164915 327.468262,258.583618 C327.103677,259.002321 326.662193,259.329873 326.143799,259.566284 C325.625404,259.802695 325.041507,259.920898 324.39209,259.920898 C323.742673,259.920898 323.158775,259.802695 322.640381,259.566284 C322.121986,259.329873 321.680503,259.002321 321.315918,258.583618 C320.951333,258.164915 320.670777,257.669314 320.474243,257.096802 C320.277709,256.524289 320.179443,255.90194 320.179443,255.229736 L320.179443,255.041748 Z M321.768799,255.229736 C321.768799,255.691164 321.822916,256.126951 321.931152,256.537109 C322.039389,256.947268 322.203165,257.307575 322.422485,257.618042 C322.641806,257.928509 322.915241,258.174885 323.242798,258.357178 C323.570355,258.53947 323.953448,258.630615 324.39209,258.630615 C324.825035,258.630615 325.206704,258.53947 325.537109,258.357178 C325.867515,258.174885 326.140949,257.928509 326.357422,257.618042 C326.573894,257.307575 326.73767,256.947268 326.848755,256.537109 C326.959839,256.126951 327.015381,255.691164 327.015381,255.229736 L327.015381,255.041748 C327.015381,254.586017 326.959839,254.151654 326.848755,253.738647 C326.73767,253.325641 326.57247,252.963909 326.353149,252.653442 C326.133829,252.342975 325.85897,252.095175 325.528564,251.910034 C325.198159,251.724893 324.813642,251.632324 324.375,251.632324 C323.942055,251.632324 323.563234,251.724893 323.238525,251.910034 C322.913817,252.095175 322.641806,252.342975 322.422485,252.653442 C322.203165,252.963909 322.039389,253.325641 321.931152,253.738647 C321.822916,254.151654 321.768799,254.586017 321.768799,255.041748 L321.768799,255.229736 Z M336.286621,258.835693 C335.996092,259.177492 335.628664,259.443806 335.184326,259.634644 C334.739988,259.825481 334.204512,259.920898 333.577881,259.920898 C333.122149,259.920898 332.709149,259.856812 332.338867,259.728638 C331.968585,259.600463 331.649578,259.398235 331.381836,259.121948 C331.114094,258.845661 330.907593,258.489626 330.762329,258.053833 C330.617065,257.61804 330.544434,257.092532 330.544434,256.477295 L330.544434,250.504395 L332.125244,250.504395 L332.125244,256.494385 C332.125244,256.91024 332.173665,257.253457 332.270508,257.524048 C332.367351,257.794638 332.495523,258.008259 332.655029,258.164917 C332.814535,258.321575 332.996825,258.429809 333.201904,258.489624 C333.406983,258.549439 333.617756,258.579346 333.834229,258.579346 C334.477949,258.579346 334.994912,258.45687 335.385132,258.211914 C335.775352,257.966958 336.061604,257.639406 336.243896,257.229248 L336.243896,250.504395 L337.824707,250.504395 L337.824707,259.75 L336.320801,259.75 L336.286621,258.835693 Z M344.694824,251.922852 C344.558105,251.900065 344.431356,251.884399 344.314575,251.875854 C344.197794,251.86731 344.065349,251.863037 343.917236,251.863037 C343.370359,251.863037 342.924603,251.982665 342.579956,252.221924 C342.235309,252.461183 341.97754,252.783038 341.806641,253.1875 L341.806641,259.75 L340.22583,259.75 L340.22583,250.504395 L341.763916,250.504395 L341.789551,251.57251 C342.02881,251.190835 342.327879,250.888917 342.686768,250.666748 C343.045656,250.444579 343.481443,250.333496 343.994141,250.333496 C344.108073,250.333496 344.239094,250.346313 344.387207,250.371948 C344.53532,250.397583 344.637858,250.424642 344.694824,250.453125 L344.694824,251.922852 Z M352.624512,248.265625 L352.624512,250.504395 L354.350586,250.504395 L354.350586,251.726318 L352.624512,251.726318 L352.624512,257.459961 C352.624512,257.69922 352.652995,257.891479 352.709961,258.036743 C352.766927,258.182008 352.842407,258.294515 352.936401,258.374268 C353.030396,258.454021 353.138631,258.506714 353.261108,258.532349 C353.383586,258.557984 353.510335,258.570801 353.641357,258.570801 C353.77238,258.570801 353.910522,258.557984 354.055786,258.532349 C354.201051,258.506714 354.313558,258.485352 354.393311,258.468262 L354.393311,259.75 C354.267984,259.78418 354.105633,259.821207 353.90625,259.861084 C353.706867,259.90096 353.464764,259.920898 353.179932,259.920898 C352.889403,259.920898 352.614544,259.879598 352.355347,259.796997 C352.096149,259.714396 351.869711,259.576254 351.676025,259.382568 C351.48234,259.188882 351.328532,258.933962 351.2146,258.617798 C351.100667,258.301634 351.043701,257.912844 351.043701,257.451416 L351.043701,251.726318 L349.360352,251.726318 L349.360352,250.504395 L351.043701,250.504395 L351.043701,248.265625 L352.624512,248.265625 Z M361.904297,259.75 C361.84733,259.636067 361.801758,259.492229 361.767578,259.318481 C361.733398,259.144734 361.704915,258.963868 361.682129,258.775879 C361.534016,258.929688 361.367392,259.076375 361.182251,259.215942 C360.99711,259.35551 360.794882,259.477986 360.575562,259.583374 C360.356241,259.688762 360.118409,259.771362 359.862061,259.831177 C359.605712,259.890992 359.335125,259.920898 359.050293,259.920898 C358.577472,259.920898 358.148806,259.849691 357.764282,259.707275 C357.379759,259.564859 357.052207,259.371176 356.781616,259.126221 C356.511026,258.881265 356.301677,258.592165 356.153564,258.258911 C356.005452,257.925658 355.931396,257.568199 355.931396,257.186523 C355.931396,256.690915 356.028238,256.253705 356.221924,255.874878 C356.41561,255.496051 356.693317,255.178468 357.055054,254.922119 C357.416791,254.66577 357.854001,254.472087 358.366699,254.341064 C358.879397,254.210042 359.451901,254.144531 360.084229,254.144531 L361.656494,254.144531 L361.656494,253.418213 C361.656494,252.865639 361.491294,252.425579 361.160889,252.098022 C360.830483,251.770465 360.343428,251.606689 359.699707,251.606689 C359.403482,251.606689 359.132895,251.646565 358.887939,251.726318 C358.642984,251.806071 358.433635,251.912882 358.259888,252.046753 C358.08614,252.180624 357.950847,252.335855 357.854004,252.512451 C357.757161,252.689047 357.70874,252.874185 357.70874,253.067871 L356.119385,253.067871 C356.119385,252.737466 356.206257,252.409914 356.380005,252.085205 C356.553752,251.760496 356.800129,251.468548 357.119141,251.209351 C357.438153,250.950153 357.824094,250.739381 358.276978,250.577026 C358.729861,250.414672 359.23543,250.333496 359.793701,250.333496 C360.295006,250.333496 360.757851,250.397582 361.182251,250.525757 C361.606651,250.653931 361.969806,250.847614 362.271729,251.106812 C362.573651,251.366009 362.810058,251.689288 362.980957,252.07666 C363.151856,252.464032 363.237305,252.916908 363.237305,253.435303 L363.237305,257.733398 C363.237305,258.046714 363.264363,258.37569 363.318481,258.720337 C363.3726,259.064984 363.453776,259.362629 363.562012,259.613281 L363.562012,259.75 L361.904297,259.75 Z M359.281006,258.545166 C359.565838,258.545166 359.833576,258.50529 360.084229,258.425537 C360.334881,258.345784 360.562743,258.241822 360.767822,258.113647 C360.972901,257.985473 361.150919,257.838787 361.30188,257.673584 C361.452841,257.508381 361.571044,257.337485 361.656494,257.160889 L361.656494,255.263916 L360.340576,255.263916 C359.43481,255.263916 358.736982,255.404906 358.24707,255.68689 C357.757159,255.968873 357.512207,256.394691 357.512207,256.964355 C357.512207,257.186525 357.549235,257.394449 357.623291,257.588135 C357.697347,257.781821 357.809854,257.948445 357.960815,258.088013 C358.111776,258.22758 358.296915,258.338663 358.516235,258.421265 C358.735556,258.503866 358.990477,258.545166 359.281006,258.545166 Z M367.432861,259.75 L365.852051,259.75 L365.852051,246.625 L367.432861,246.625 L367.432861,259.75 Z M372.542725,255.468994 L371.551514,256.50293 L371.551514,259.75 L369.970703,259.75 L369.970703,246.625 L371.551514,246.625 L371.551514,254.563232 L372.397461,253.546387 L375.2771,250.504395 L377.199707,250.504395 L373.602295,254.366699 L377.618408,259.75 L375.76416,259.75 L372.542725,255.468994 Z M385.308838,248.265625 L385.308838,250.504395 L387.034912,250.504395 L387.034912,251.726318 L385.308838,251.726318 L385.308838,257.459961 C385.308838,257.69922 385.337321,257.891479 385.394287,258.036743 C385.451254,258.182008 385.526733,258.294515 385.620728,258.374268 C385.714722,258.454021 385.822957,258.506714 385.945435,258.532349 C386.067912,258.557984 386.194661,258.570801 386.325684,258.570801 C386.456706,258.570801 386.594848,258.557984 386.740112,258.532349 C386.885377,258.506714 386.997884,258.485352 387.077637,258.468262 L387.077637,259.75 C386.952311,259.78418 386.789959,259.821207 386.590576,259.861084 C386.391194,259.90096 386.14909,259.920898 385.864258,259.920898 C385.573729,259.920898 385.29887,259.879598 385.039673,259.796997 C384.780476,259.714396 384.554037,259.576254 384.360352,259.382568 C384.166666,259.188882 384.012859,258.933962 383.898926,258.617798 C383.784993,258.301634 383.728027,257.912844 383.728027,257.451416 L383.728027,251.726318 L382.044678,251.726318 L382.044678,250.504395 L383.728027,250.504395 L383.728027,248.265625 L385.308838,248.265625 Z M390.598145,259.75 L389.017334,259.75 L389.017334,250.504395 L390.598145,250.504395 L390.598145,259.75 Z M388.88916,248.052002 C388.88916,247.795653 388.967488,247.579184 389.124146,247.402588 C389.280803,247.225992 389.512938,247.137695 389.820557,247.137695 C390.128175,247.137695 390.361734,247.225992 390.52124,247.402588 C390.680746,247.579184 390.760498,247.795653 390.760498,248.052002 C390.760498,248.308351 390.680746,248.521972 390.52124,248.692871 C390.361734,248.86377 390.128175,248.949219 389.820557,248.949219 C389.512938,248.949219 389.280803,248.86377 389.124146,248.692871 C388.967488,248.521972 388.88916,248.308351 388.88916,248.052002 Z M394.614258,250.504395 L394.656982,251.529785 C394.975994,251.153807 395.361936,250.860434 395.814819,250.649658 C396.267702,250.438882 396.796058,250.333496 397.399902,250.333496 C397.99805,250.333496 398.526406,250.4517 398.984985,250.68811 C399.443565,250.924521 399.795328,251.301918 400.040283,251.820312 C400.347902,251.375974 400.748085,251.017091 401.240845,250.743652 C401.733604,250.470213 402.316077,250.333496 402.988281,250.333496 C403.483889,250.333496 403.922524,250.397582 404.304199,250.525757 C404.685874,250.653931 405.009154,250.854735 405.274048,251.128174 C405.538942,251.401613 405.739745,251.749103 405.876465,252.170654 C406.013184,252.592206 406.081543,253.093503 406.081543,253.674561 L406.081543,259.75 L404.500732,259.75 L404.500732,253.666016 C404.500732,253.278644 404.453736,252.956788 404.359741,252.700439 C404.265747,252.444091 404.133302,252.239014 403.962402,252.085205 C403.791503,251.931396 403.583579,251.824585 403.338623,251.764771 C403.093667,251.704956 402.823081,251.675049 402.526855,251.675049 C402.202147,251.675049 401.914471,251.726318 401.663818,251.828857 C401.413166,251.931397 401.198121,252.069539 401.018677,252.243286 C400.839233,252.417034 400.696819,252.62211 400.591431,252.858521 C400.486043,253.094931 400.419108,253.347004 400.390625,253.614746 L400.390625,259.75 L398.80127,259.75 L398.80127,253.674561 C398.80127,253.315672 398.754273,253.009482 398.660278,252.755981 C398.566284,252.502481 398.433839,252.295981 398.262939,252.136475 C398.09204,251.976969 397.88554,251.860189 397.643433,251.786133 C397.401325,251.712076 397.129315,251.675049 396.827393,251.675049 C396.263425,251.675049 395.810549,251.797525 395.46875,252.04248 C395.126951,252.287436 394.870606,252.606443 394.699707,252.999512 L394.699707,259.75 L393.118896,259.75 L393.118896,250.504395 L394.614258,250.504395 Z M412.302246,259.920898 C411.658525,259.920898 411.076052,259.809816 410.55481,259.587646 C410.033567,259.365477 409.587811,259.056439 409.217529,258.660522 C408.847247,258.264606 408.56242,257.793216 408.363037,257.246338 C408.163655,256.69946 408.063965,256.101322 408.063965,255.451904 L408.063965,255.093018 C408.063965,254.341061 408.176472,253.668867 408.401489,253.076416 C408.626507,252.483965 408.927,251.985516 409.302979,251.581055 C409.678957,251.176593 410.109047,250.867555 410.593262,250.653931 C411.077476,250.440307 411.581622,250.333496 412.105713,250.333496 C412.766523,250.333496 413.336179,250.448851 413.814697,250.679565 C414.293215,250.910279 414.687702,251.227863 414.998169,251.632324 C415.308636,252.036786 415.537922,252.515297 415.686035,253.067871 C415.834148,253.620445 415.908203,254.221432 415.908203,254.87085 L415.908203,255.580078 L409.644775,255.580078 C409.656169,256.007326 409.725952,256.406085 409.854126,256.776367 C409.9823,257.146649 410.16459,257.468504 410.401001,257.741943 C410.637412,258.015382 410.92224,258.231851 411.255493,258.391357 C411.588747,258.550863 411.966144,258.630615 412.387695,258.630615 C412.945966,258.630615 413.418781,258.516684 413.806152,258.288818 C414.193524,258.060953 414.532469,257.759035 414.822998,257.383057 L415.788574,258.13501 C415.640461,258.362875 415.46102,258.583617 415.250244,258.797241 C415.039468,259.010865 414.793092,259.2017 414.511108,259.369751 C414.229125,259.537802 413.905845,259.671671 413.54126,259.771362 C413.176675,259.871054 412.763674,259.920898 412.302246,259.920898 Z M412.105713,251.632324 C411.786701,251.632324 411.493328,251.690714 411.225586,251.807495 C410.957844,251.924276 410.718588,252.093749 410.507812,252.315918 C410.297037,252.538087 410.121868,252.81437 409.9823,253.144775 C409.842732,253.475181 409.747315,253.854002 409.696045,254.28125 L414.327393,254.28125 L414.327393,254.161621 C414.310303,253.854002 414.260458,253.549237 414.177856,253.247314 C414.095255,252.945392 413.967083,252.674806 413.793335,252.435547 C413.619587,252.196288 413.395997,252.002605 413.122559,251.854492 C412.84912,251.706379 412.510175,251.632324 412.105713,251.632324 Z" id="your-talk-time" fill="#000000"></path>
                <path d="M486.875,191.875 L41.875,191.875" id="Line-Copy-16" stroke="#AAA8A8" stroke-width="1.25" stroke-linecap="square" stroke-dasharray="3.125"></path>
                <path d="M14.5771484,196.75 L8.00427246,196.75 L8.00427246,195.628784 L11.1866455,192.157715 C11.4552015,191.862303 11.6778759,191.599346 11.8546753,191.368835 C12.0314747,191.138325 12.1724645,190.927959 12.2776489,190.737732 C12.3828334,190.547505 12.4566852,190.369589 12.4992065,190.203979 C12.5417279,190.03837 12.5629883,189.872763 12.5629883,189.707153 C12.5629883,189.483357 12.5305382,189.276348 12.4656372,189.086121 C12.4007362,188.895893 12.306743,188.731405 12.1836548,188.592651 C12.0605666,188.453897 11.9095061,188.345358 11.7304688,188.267029 C11.5514314,188.1887 11.3455415,188.149536 11.112793,188.149536 C10.8308091,188.149536 10.5857554,188.194295 10.3776245,188.283813 C10.1694936,188.373332 9.99717272,188.497537 9.86065674,188.656433 C9.72414076,188.815329 9.62119582,189.005553 9.55181885,189.227112 C9.48244187,189.448671 9.44775391,189.691486 9.44775391,189.955566 L7.81628418,189.955566 C7.81628418,189.525877 7.88901701,189.12193 8.03448486,188.743713 C8.17995271,188.365497 8.39367535,188.035402 8.67565918,187.753418 C8.95764301,187.471434 9.30452268,187.24876 9.71630859,187.085388 C10.1280945,186.922017 10.5980605,186.840332 11.1262207,186.840332 C11.6140975,186.840332 12.0482566,186.904113 12.4287109,187.031677 C12.8091653,187.159241 13.1303087,187.339395 13.3921509,187.572144 C13.653993,187.804892 13.8531691,188.087991 13.9896851,188.421448 C14.126201,188.754905 14.194458,189.125283 14.194458,189.532593 C14.194458,189.836956 14.1452235,190.137958 14.0467529,190.435608 C13.9482824,190.733258 13.8117685,191.029784 13.637207,191.325195 C13.4626456,191.620607 13.2545178,191.917133 13.0128174,192.214783 C12.771117,192.512432 12.5070408,192.811196 12.2205811,193.111084 L10.0385742,195.44751 L14.5771484,195.44751 L14.5771484,196.75 Z M22.1906738,192.634399 C22.1906738,193.408736 22.1145841,194.065569 21.9624023,194.604919 C21.8102206,195.144269 21.595379,195.582904 21.3178711,195.920837 C21.0403632,196.25877 20.7057922,196.503824 20.3141479,196.656006 C19.9225037,196.808188 19.4849878,196.884277 19.0015869,196.884277 C18.522662,196.884277 18.086265,196.808188 17.6923828,196.656006 C17.2985006,196.503824 16.9605727,196.25877 16.6785889,195.920837 C16.396605,195.582904 16.1784065,195.144269 16.0239868,194.604919 C15.8695671,194.065569 15.7923584,193.408736 15.7923584,192.634399 L15.7923584,191.056641 C15.7923584,190.282304 15.8684481,189.62659 16.0206299,189.089478 C16.1728116,188.552365 16.3887722,188.117087 16.6685181,187.78363 C16.9482639,187.450173 17.2850729,187.209595 17.6789551,187.06189 C18.0728373,186.914184 18.5092343,186.840332 18.9881592,186.840332 C19.47156,186.840332 19.910195,186.914184 20.3040771,187.06189 C20.6979593,187.209595 21.0347683,187.450173 21.3145142,187.78363 C21.59426,188.117087 21.8102206,188.552365 21.9624023,189.089478 C22.1145841,189.62659 22.1906738,190.282304 22.1906738,191.056641 L22.1906738,192.634399 Z M20.5592041,190.808228 C20.5592041,190.311399 20.5245161,189.894024 20.4551392,189.556091 C20.3857622,189.218158 20.2839362,188.94513 20.1496582,188.737 C20.0153802,188.528869 19.8508921,188.378927 19.656189,188.28717 C19.4614858,188.195414 19.2388115,188.149536 18.9881592,188.149536 C18.7375069,188.149536 18.5148325,188.195414 18.3201294,188.28717 C18.1254263,188.378927 17.9609382,188.528869 17.8266602,188.737 C17.6923821,188.94513 17.5905562,189.218158 17.5211792,189.556091 C17.4518022,189.894024 17.4171143,190.311399 17.4171143,190.808228 L17.4171143,192.869385 C17.4171143,193.361737 17.4529212,193.780231 17.5245361,194.124878 C17.5961511,194.469525 17.699096,194.749267 17.833374,194.964111 C17.967652,195.178956 18.1332591,195.335611 18.3302002,195.434082 C18.5271413,195.532553 18.7509346,195.581787 19.0015869,195.581787 C19.2567151,195.581787 19.4805085,195.532553 19.6729736,195.434082 C19.8654388,195.335611 20.027689,195.178956 20.159729,194.964111 C20.2917691,194.749267 20.3913571,194.469525 20.4584961,194.124878 C20.5256351,193.780231 20.5592041,193.361737 20.5592041,192.869385 L20.5592041,190.808228 Z M23.5670166,188.854492 C23.5670166,188.576984 23.6128942,188.316265 23.7046509,188.072327 C23.7964075,187.828388 23.9306835,187.614666 24.1074829,187.431152 C24.2842823,187.247639 24.5013618,187.102173 24.758728,186.994751 C25.0160942,186.887329 25.3081445,186.833618 25.6348877,186.833618 C25.9705827,186.833618 26.2671089,186.887329 26.5244751,186.994751 C26.7818413,187.102173 26.9978019,187.247639 27.1723633,187.431152 C27.3469247,187.614666 27.4800817,187.828388 27.5718384,188.072327 C27.663595,188.316265 27.7094727,188.576984 27.7094727,188.854492 L27.7094727,189.37146 C27.7094727,189.644492 27.663595,189.902973 27.5718384,190.146912 C27.4800817,190.39085 27.3469247,190.603454 27.1723633,190.784729 C26.9978019,190.966004 26.7829603,191.110351 26.527832,191.217773 C26.2727038,191.325196 25.9795345,191.378906 25.6483154,191.378906 C25.3170963,191.378906 25.0228081,191.325196 24.7654419,191.217773 C24.5080757,191.110351 24.2898772,190.966004 24.1108398,190.784729 C23.9318025,190.603454 23.7964075,190.39085 23.7046509,190.146912 C23.6128942,189.902973 23.5670166,189.644492 23.5670166,189.37146 L23.5670166,188.854492 Z M24.708374,189.37146 C24.708374,189.505738 24.7273965,189.635538 24.7654419,189.760864 C24.8034873,189.88619 24.8616736,189.995849 24.9400024,190.089844 C25.0183313,190.183838 25.1156814,190.259928 25.2320557,190.318115 C25.3484299,190.376302 25.4871818,190.405396 25.6483154,190.405396 C25.8049731,190.405396 25.941487,190.376302 26.0578613,190.318115 C26.1742356,190.259928 26.2704667,190.183838 26.3465576,190.089844 C26.4226485,189.995849 26.4797158,189.88619 26.5177612,189.760864 C26.5558067,189.635538 26.5748291,189.505738 26.5748291,189.37146 L26.5748291,188.854492 C26.5748291,188.720214 26.5558067,188.590414 26.5177612,188.465088 C26.4797158,188.339762 26.4215295,188.228984 26.3432007,188.132751 C26.2648718,188.036519 26.1675217,187.95931 26.0511475,187.901123 C25.9347732,187.842936 25.7960213,187.813843 25.6348877,187.813843 C25.47823,187.813843 25.3417161,187.842936 25.2253418,187.901123 C25.1089675,187.95931 25.0127364,188.036519 24.9366455,188.132751 C24.8605546,188.228984 24.8034873,188.339762 24.7654419,188.465088 C24.7273965,188.590414 24.708374,188.720214 24.708374,188.854492 L24.708374,189.37146 Z M28.2667236,194.353149 C28.2667236,194.080117 28.3126013,193.820517 28.4043579,193.574341 C28.4961146,193.328164 28.6315095,193.114442 28.8105469,192.933167 C28.9895842,192.751891 29.2066638,192.607544 29.461792,192.500122 C29.7169202,192.3927 30.0100895,192.338989 30.3413086,192.338989 C30.6725277,192.338989 30.9668159,192.3927 31.2241821,192.500122 C31.4815483,192.607544 31.6986279,192.751891 31.8754272,192.933167 C32.0522266,193.114442 32.1865026,193.328164 32.2782593,193.574341 C32.3700159,193.820517 32.4158936,194.080117 32.4158936,194.353149 L32.4158936,194.876831 C32.4158936,195.154339 32.3700159,195.413939 32.2782593,195.65564 C32.1865026,195.89734 32.0533456,196.109944 31.8787842,196.293457 C31.7042228,196.47697 31.4882622,196.621317 31.230896,196.726501 C30.9735298,196.831686 30.6814795,196.884277 30.3547363,196.884277 C30.0235172,196.884277 29.72811,196.831686 29.4685059,196.726501 C29.2089017,196.621317 28.9895842,196.47697 28.8105469,196.293457 C28.6315095,196.109944 28.4961146,195.89734 28.4043579,195.65564 C28.3126013,195.413939 28.2667236,195.154339 28.2667236,194.876831 L28.2667236,194.353149 Z M29.4080811,194.876831 C29.4080811,195.011109 29.4282225,195.140909 29.4685059,195.266235 C29.5087893,195.391561 29.5692135,195.502339 29.6497803,195.598572 C29.7303471,195.694804 29.8288161,195.772013 29.9451904,195.8302 C30.0615647,195.888387 30.1980786,195.91748 30.3547363,195.91748 C30.5203459,195.91748 30.6613357,195.888387 30.77771,195.8302 C30.8940842,195.772013 30.9891964,195.694804 31.0630493,195.598572 C31.1369022,195.502339 31.1906126,195.391561 31.2241821,195.266235 C31.2577516,195.140909 31.2745361,195.011109 31.2745361,194.876831 L31.2745361,194.353149 C31.2745361,194.218871 31.2555137,194.089071 31.2174683,193.963745 C31.1794228,193.838419 31.1212366,193.72876 31.0429077,193.634766 C30.9645789,193.540771 30.8672288,193.464681 30.7508545,193.406494 C30.6344802,193.348307 30.4979663,193.319214 30.3413086,193.319214 C30.1846509,193.319214 30.047018,193.348307 29.9284058,193.406494 C29.8097935,193.464681 29.7124434,193.540771 29.6363525,193.634766 C29.5602617,193.72876 29.5031944,193.838419 29.4651489,193.963745 C29.4271035,194.089071 29.4080811,194.218871 29.4080811,194.353149 L29.4080811,194.876831 Z M25.9840088,196.018188 L25.1447754,195.53479 L29.918335,187.894409 L30.7575684,188.377808 L25.9840088,196.018188 Z" id="20%" fill="#000000"></path>
                <path d="M22.1906738,232.634399 C22.1906738,233.408736 22.1145841,234.065569 21.9624023,234.604919 C21.8102206,235.144269 21.595379,235.582904 21.3178711,235.920837 C21.0403632,236.25877 20.7057922,236.503824 20.3141479,236.656006 C19.9225037,236.808188 19.4849878,236.884277 19.0015869,236.884277 C18.522662,236.884277 18.086265,236.808188 17.6923828,236.656006 C17.2985006,236.503824 16.9605727,236.25877 16.6785889,235.920837 C16.396605,235.582904 16.1784065,235.144269 16.0239868,234.604919 C15.8695671,234.065569 15.7923584,233.408736 15.7923584,232.634399 L15.7923584,231.056641 C15.7923584,230.282304 15.8684481,229.62659 16.0206299,229.089478 C16.1728116,228.552365 16.3887722,228.117087 16.6685181,227.78363 C16.9482639,227.450173 17.2850729,227.209595 17.6789551,227.06189 C18.0728373,226.914184 18.5092343,226.840332 18.9881592,226.840332 C19.47156,226.840332 19.910195,226.914184 20.3040771,227.06189 C20.6979593,227.209595 21.0347683,227.450173 21.3145142,227.78363 C21.59426,228.117087 21.8102206,228.552365 21.9624023,229.089478 C22.1145841,229.62659 22.1906738,230.282304 22.1906738,231.056641 L22.1906738,232.634399 Z M20.5592041,230.808228 C20.5592041,230.311399 20.5245161,229.894024 20.4551392,229.556091 C20.3857622,229.218158 20.2839362,228.94513 20.1496582,228.737 C20.0153802,228.528869 19.8508921,228.378927 19.656189,228.28717 C19.4614858,228.195414 19.2388115,228.149536 18.9881592,228.149536 C18.7375069,228.149536 18.5148325,228.195414 18.3201294,228.28717 C18.1254263,228.378927 17.9609382,228.528869 17.8266602,228.737 C17.6923821,228.94513 17.5905562,229.218158 17.5211792,229.556091 C17.4518022,229.894024 17.4171143,230.311399 17.4171143,230.808228 L17.4171143,232.869385 C17.4171143,233.361737 17.4529212,233.780231 17.5245361,234.124878 C17.5961511,234.469525 17.699096,234.749267 17.833374,234.964111 C17.967652,235.178956 18.1332591,235.335611 18.3302002,235.434082 C18.5271413,235.532553 18.7509346,235.581787 19.0015869,235.581787 C19.2567151,235.581787 19.4805085,235.532553 19.6729736,235.434082 C19.8654388,235.335611 20.027689,235.178956 20.159729,234.964111 C20.2917691,234.749267 20.3913571,234.469525 20.4584961,234.124878 C20.5256351,233.780231 20.5592041,233.361737 20.5592041,232.869385 L20.5592041,230.808228 Z M23.5670166,228.854492 C23.5670166,228.576984 23.6128942,228.316265 23.7046509,228.072327 C23.7964075,227.828388 23.9306835,227.614666 24.1074829,227.431152 C24.2842823,227.247639 24.5013618,227.102173 24.758728,226.994751 C25.0160942,226.887329 25.3081445,226.833618 25.6348877,226.833618 C25.9705827,226.833618 26.2671089,226.887329 26.5244751,226.994751 C26.7818413,227.102173 26.9978019,227.247639 27.1723633,227.431152 C27.3469247,227.614666 27.4800817,227.828388 27.5718384,228.072327 C27.663595,228.316265 27.7094727,228.576984 27.7094727,228.854492 L27.7094727,229.37146 C27.7094727,229.644492 27.663595,229.902973 27.5718384,230.146912 C27.4800817,230.39085 27.3469247,230.603454 27.1723633,230.784729 C26.9978019,230.966004 26.7829603,231.110351 26.527832,231.217773 C26.2727038,231.325196 25.9795345,231.378906 25.6483154,231.378906 C25.3170963,231.378906 25.0228081,231.325196 24.7654419,231.217773 C24.5080757,231.110351 24.2898772,230.966004 24.1108398,230.784729 C23.9318025,230.603454 23.7964075,230.39085 23.7046509,230.146912 C23.6128942,229.902973 23.5670166,229.644492 23.5670166,229.37146 L23.5670166,228.854492 Z M24.708374,229.37146 C24.708374,229.505738 24.7273965,229.635538 24.7654419,229.760864 C24.8034873,229.88619 24.8616736,229.995849 24.9400024,230.089844 C25.0183313,230.183838 25.1156814,230.259928 25.2320557,230.318115 C25.3484299,230.376302 25.4871818,230.405396 25.6483154,230.405396 C25.8049731,230.405396 25.941487,230.376302 26.0578613,230.318115 C26.1742356,230.259928 26.2704667,230.183838 26.3465576,230.089844 C26.4226485,229.995849 26.4797158,229.88619 26.5177612,229.760864 C26.5558067,229.635538 26.5748291,229.505738 26.5748291,229.37146 L26.5748291,228.854492 C26.5748291,228.720214 26.5558067,228.590414 26.5177612,228.465088 C26.4797158,228.339762 26.4215295,228.228984 26.3432007,228.132751 C26.2648718,228.036519 26.1675217,227.95931 26.0511475,227.901123 C25.9347732,227.842936 25.7960213,227.813843 25.6348877,227.813843 C25.47823,227.813843 25.3417161,227.842936 25.2253418,227.901123 C25.1089675,227.95931 25.0127364,228.036519 24.9366455,228.132751 C24.8605546,228.228984 24.8034873,228.339762 24.7654419,228.465088 C24.7273965,228.590414 24.708374,228.720214 24.708374,228.854492 L24.708374,229.37146 Z M28.2667236,234.353149 C28.2667236,234.080117 28.3126013,233.820517 28.4043579,233.574341 C28.4961146,233.328164 28.6315095,233.114442 28.8105469,232.933167 C28.9895842,232.751891 29.2066638,232.607544 29.461792,232.500122 C29.7169202,232.3927 30.0100895,232.338989 30.3413086,232.338989 C30.6725277,232.338989 30.9668159,232.3927 31.2241821,232.500122 C31.4815483,232.607544 31.6986279,232.751891 31.8754272,232.933167 C32.0522266,233.114442 32.1865026,233.328164 32.2782593,233.574341 C32.3700159,233.820517 32.4158936,234.080117 32.4158936,234.353149 L32.4158936,234.876831 C32.4158936,235.154339 32.3700159,235.413939 32.2782593,235.65564 C32.1865026,235.89734 32.0533456,236.109944 31.8787842,236.293457 C31.7042228,236.47697 31.4882622,236.621317 31.230896,236.726501 C30.9735298,236.831686 30.6814795,236.884277 30.3547363,236.884277 C30.0235172,236.884277 29.72811,236.831686 29.4685059,236.726501 C29.2089017,236.621317 28.9895842,236.47697 28.8105469,236.293457 C28.6315095,236.109944 28.4961146,235.89734 28.4043579,235.65564 C28.3126013,235.413939 28.2667236,235.154339 28.2667236,234.876831 L28.2667236,234.353149 Z M29.4080811,234.876831 C29.4080811,235.011109 29.4282225,235.140909 29.4685059,235.266235 C29.5087893,235.391561 29.5692135,235.502339 29.6497803,235.598572 C29.7303471,235.694804 29.8288161,235.772013 29.9451904,235.8302 C30.0615647,235.888387 30.1980786,235.91748 30.3547363,235.91748 C30.5203459,235.91748 30.6613357,235.888387 30.77771,235.8302 C30.8940842,235.772013 30.9891964,235.694804 31.0630493,235.598572 C31.1369022,235.502339 31.1906126,235.391561 31.2241821,235.266235 C31.2577516,235.140909 31.2745361,235.011109 31.2745361,234.876831 L31.2745361,234.353149 C31.2745361,234.218871 31.2555137,234.089071 31.2174683,233.963745 C31.1794228,233.838419 31.1212366,233.72876 31.0429077,233.634766 C30.9645789,233.540771 30.8672288,233.464681 30.7508545,233.406494 C30.6344802,233.348307 30.4979663,233.319214 30.3413086,233.319214 C30.1846509,233.319214 30.047018,233.348307 29.9284058,233.406494 C29.8097935,233.464681 29.7124434,233.540771 29.6363525,233.634766 C29.5602617,233.72876 29.5031944,233.838419 29.4651489,233.963745 C29.4271035,234.089071 29.4080811,234.218871 29.4080811,234.353149 L29.4080811,234.876831 Z M25.9840088,236.018188 L25.1447754,235.53479 L29.918335,227.894409 L30.7575684,228.377808 L25.9840088,236.018188 Z" id="0%" fill="#000000"></path>
                <path d="M486.875,148.75 L41.875,148.75" id="Line-Copy-17" stroke="#AAA8A8" stroke-width="1.25" stroke-linecap="square" stroke-dasharray="3.125"></path>
                <path d="M13.5230713,150.765503 L14.7382812,150.765503 L14.7382812,152.074707 L13.5230713,152.074707 L13.5230713,154.25 L11.8916016,154.25 L11.8916016,152.074707 L7.6685791,152.074707 L7.62158203,151.081055 L11.8378906,144.474609 L13.5230713,144.474609 L13.5230713,150.765503 Z M9.33361816,150.765503 L11.8916016,150.765503 L11.8916016,146.683472 L11.770752,146.898315 L9.33361816,150.765503 Z M22.1906738,150.134399 C22.1906738,150.908736 22.1145841,151.565569 21.9624023,152.104919 C21.8102206,152.644269 21.595379,153.082904 21.3178711,153.420837 C21.0403632,153.75877 20.7057922,154.003824 20.3141479,154.156006 C19.9225037,154.308188 19.4849878,154.384277 19.0015869,154.384277 C18.522662,154.384277 18.086265,154.308188 17.6923828,154.156006 C17.2985006,154.003824 16.9605727,153.75877 16.6785889,153.420837 C16.396605,153.082904 16.1784065,152.644269 16.0239868,152.104919 C15.8695671,151.565569 15.7923584,150.908736 15.7923584,150.134399 L15.7923584,148.556641 C15.7923584,147.782304 15.8684481,147.12659 16.0206299,146.589478 C16.1728116,146.052365 16.3887722,145.617087 16.6685181,145.28363 C16.9482639,144.950173 17.2850729,144.709595 17.6789551,144.56189 C18.0728373,144.414184 18.5092343,144.340332 18.9881592,144.340332 C19.47156,144.340332 19.910195,144.414184 20.3040771,144.56189 C20.6979593,144.709595 21.0347683,144.950173 21.3145142,145.28363 C21.59426,145.617087 21.8102206,146.052365 21.9624023,146.589478 C22.1145841,147.12659 22.1906738,147.782304 22.1906738,148.556641 L22.1906738,150.134399 Z M20.5592041,148.308228 C20.5592041,147.811399 20.5245161,147.394024 20.4551392,147.056091 C20.3857622,146.718158 20.2839362,146.44513 20.1496582,146.237 C20.0153802,146.028869 19.8508921,145.878927 19.656189,145.78717 C19.4614858,145.695414 19.2388115,145.649536 18.9881592,145.649536 C18.7375069,145.649536 18.5148325,145.695414 18.3201294,145.78717 C18.1254263,145.878927 17.9609382,146.028869 17.8266602,146.237 C17.6923821,146.44513 17.5905562,146.718158 17.5211792,147.056091 C17.4518022,147.394024 17.4171143,147.811399 17.4171143,148.308228 L17.4171143,150.369385 C17.4171143,150.861737 17.4529212,151.280231 17.5245361,151.624878 C17.5961511,151.969525 17.699096,152.249267 17.833374,152.464111 C17.967652,152.678956 18.1332591,152.835611 18.3302002,152.934082 C18.5271413,153.032553 18.7509346,153.081787 19.0015869,153.081787 C19.2567151,153.081787 19.4805085,153.032553 19.6729736,152.934082 C19.8654388,152.835611 20.027689,152.678956 20.159729,152.464111 C20.2917691,152.249267 20.3913571,151.969525 20.4584961,151.624878 C20.5256351,151.280231 20.5592041,150.861737 20.5592041,150.369385 L20.5592041,148.308228 Z M23.5670166,146.354492 C23.5670166,146.076984 23.6128942,145.816265 23.7046509,145.572327 C23.7964075,145.328388 23.9306835,145.114666 24.1074829,144.931152 C24.2842823,144.747639 24.5013618,144.602173 24.758728,144.494751 C25.0160942,144.387329 25.3081445,144.333618 25.6348877,144.333618 C25.9705827,144.333618 26.2671089,144.387329 26.5244751,144.494751 C26.7818413,144.602173 26.9978019,144.747639 27.1723633,144.931152 C27.3469247,145.114666 27.4800817,145.328388 27.5718384,145.572327 C27.663595,145.816265 27.7094727,146.076984 27.7094727,146.354492 L27.7094727,146.87146 C27.7094727,147.144492 27.663595,147.402973 27.5718384,147.646912 C27.4800817,147.89085 27.3469247,148.103454 27.1723633,148.284729 C26.9978019,148.466004 26.7829603,148.610351 26.527832,148.717773 C26.2727038,148.825196 25.9795345,148.878906 25.6483154,148.878906 C25.3170963,148.878906 25.0228081,148.825196 24.7654419,148.717773 C24.5080757,148.610351 24.2898772,148.466004 24.1108398,148.284729 C23.9318025,148.103454 23.7964075,147.89085 23.7046509,147.646912 C23.6128942,147.402973 23.5670166,147.144492 23.5670166,146.87146 L23.5670166,146.354492 Z M24.708374,146.87146 C24.708374,147.005738 24.7273965,147.135538 24.7654419,147.260864 C24.8034873,147.38619 24.8616736,147.495849 24.9400024,147.589844 C25.0183313,147.683838 25.1156814,147.759928 25.2320557,147.818115 C25.3484299,147.876302 25.4871818,147.905396 25.6483154,147.905396 C25.8049731,147.905396 25.941487,147.876302 26.0578613,147.818115 C26.1742356,147.759928 26.2704667,147.683838 26.3465576,147.589844 C26.4226485,147.495849 26.4797158,147.38619 26.5177612,147.260864 C26.5558067,147.135538 26.5748291,147.005738 26.5748291,146.87146 L26.5748291,146.354492 C26.5748291,146.220214 26.5558067,146.090414 26.5177612,145.965088 C26.4797158,145.839762 26.4215295,145.728984 26.3432007,145.632751 C26.2648718,145.536519 26.1675217,145.45931 26.0511475,145.401123 C25.9347732,145.342936 25.7960213,145.313843 25.6348877,145.313843 C25.47823,145.313843 25.3417161,145.342936 25.2253418,145.401123 C25.1089675,145.45931 25.0127364,145.536519 24.9366455,145.632751 C24.8605546,145.728984 24.8034873,145.839762 24.7654419,145.965088 C24.7273965,146.090414 24.708374,146.220214 24.708374,146.354492 L24.708374,146.87146 Z M28.2667236,151.853149 C28.2667236,151.580117 28.3126013,151.320517 28.4043579,151.074341 C28.4961146,150.828164 28.6315095,150.614442 28.8105469,150.433167 C28.9895842,150.251891 29.2066638,150.107544 29.461792,150.000122 C29.7169202,149.8927 30.0100895,149.838989 30.3413086,149.838989 C30.6725277,149.838989 30.9668159,149.8927 31.2241821,150.000122 C31.4815483,150.107544 31.6986279,150.251891 31.8754272,150.433167 C32.0522266,150.614442 32.1865026,150.828164 32.2782593,151.074341 C32.3700159,151.320517 32.4158936,151.580117 32.4158936,151.853149 L32.4158936,152.376831 C32.4158936,152.654339 32.3700159,152.913939 32.2782593,153.15564 C32.1865026,153.39734 32.0533456,153.609944 31.8787842,153.793457 C31.7042228,153.97697 31.4882622,154.121317 31.230896,154.226501 C30.9735298,154.331686 30.6814795,154.384277 30.3547363,154.384277 C30.0235172,154.384277 29.72811,154.331686 29.4685059,154.226501 C29.2089017,154.121317 28.9895842,153.97697 28.8105469,153.793457 C28.6315095,153.609944 28.4961146,153.39734 28.4043579,153.15564 C28.3126013,152.913939 28.2667236,152.654339 28.2667236,152.376831 L28.2667236,151.853149 Z M29.4080811,152.376831 C29.4080811,152.511109 29.4282225,152.640909 29.4685059,152.766235 C29.5087893,152.891561 29.5692135,153.002339 29.6497803,153.098572 C29.7303471,153.194804 29.8288161,153.272013 29.9451904,153.3302 C30.0615647,153.388387 30.1980786,153.41748 30.3547363,153.41748 C30.5203459,153.41748 30.6613357,153.388387 30.77771,153.3302 C30.8940842,153.272013 30.9891964,153.194804 31.0630493,153.098572 C31.1369022,153.002339 31.1906126,152.891561 31.2241821,152.766235 C31.2577516,152.640909 31.2745361,152.511109 31.2745361,152.376831 L31.2745361,151.853149 C31.2745361,151.718871 31.2555137,151.589071 31.2174683,151.463745 C31.1794228,151.338419 31.1212366,151.22876 31.0429077,151.134766 C30.9645789,151.040771 30.8672288,150.964681 30.7508545,150.906494 C30.6344802,150.848307 30.4979663,150.819214 30.3413086,150.819214 C30.1846509,150.819214 30.047018,150.848307 29.9284058,150.906494 C29.8097935,150.964681 29.7124434,151.040771 29.6363525,151.134766 C29.5602617,151.22876 29.5031944,151.338419 29.4651489,151.463745 C29.4271035,151.589071 29.4080811,151.718871 29.4080811,151.853149 L29.4080811,152.376831 Z M25.9840088,153.518188 L25.1447754,153.03479 L29.918335,145.394409 L30.7575684,145.877808 L25.9840088,153.518188 Z" id="40%" fill="#000000"></path>
                <path d="M486.875,62.5 L41.875,62.5" id="Line-Copy-19" stroke="#AAA8A8" stroke-width="1.25" stroke-linecap="square" stroke-dasharray="3.125"></path>
                <path d="M14.1608887,60.8027344 C14.1608887,61.2816593 14.0378023,61.7079856 13.791626,62.0817261 C13.5454496,62.4554665 13.2097596,62.7497548 12.7845459,62.9645996 C13.0262463,63.076498 13.2455638,63.2118929 13.4425049,63.3707886 C13.639446,63.5296842 13.807291,63.7098379 13.9460449,63.9112549 C14.0847989,64.1126719 14.1911007,64.3331083 14.2649536,64.5725708 C14.3388065,64.8120333 14.3757324,65.0660387 14.3757324,65.3345947 C14.3757324,65.79114 14.2951668,66.192849 14.1340332,66.5397339 C13.9728996,66.8866188 13.7491063,67.1786691 13.4626465,67.4158936 C13.1761867,67.653118 12.8382588,67.8321527 12.4488525,67.9530029 C12.0594463,68.0738531 11.6364769,68.1342773 11.1799316,68.1342773 C10.7233864,68.1342773 10.300417,68.0738531 9.91101074,67.9530029 C9.5216045,67.8321527 9.1825576,67.653118 8.89385986,67.4158936 C8.60516213,67.1786691 8.37913086,66.8866188 8.21575928,66.5397339 C8.05238769,66.192849 7.97070312,65.79114 7.97070312,65.3345947 C7.97070312,65.0660387 8.00762903,64.8120333 8.08148193,64.5725708 C8.15533484,64.3331083 8.26051771,64.1126719 8.39703369,63.9112549 C8.53354967,63.7098379 8.70027571,63.5285653 8.8972168,63.3674316 C9.09415789,63.206298 9.31347535,63.072022 9.55517578,62.9645996 C9.134438,62.7497548 8.8021049,62.4554665 8.5581665,62.0817261 C8.31422811,61.7079856 8.19226074,61.2816593 8.19226074,60.8027344 C8.19226074,60.3685688 8.26611254,59.9825253 8.41381836,59.6445923 C8.56152418,59.3066593 8.76741404,59.0224417 9.03149414,58.7919312 C9.29557424,58.5614206 9.61000387,58.3868618 9.97479248,58.2682495 C10.3395811,58.1496373 10.7390522,58.090332 11.1732178,58.090332 C11.6073834,58.090332 12.0079734,58.1496373 12.375,58.2682495 C12.7420266,58.3868618 13.0575752,58.5614206 13.3216553,58.7919312 C13.5857354,59.0224417 13.7916252,59.3066593 13.9393311,59.6445923 C14.0870369,59.9825253 14.1608887,60.3685688 14.1608887,60.8027344 Z M12.7442627,65.2540283 C12.7442627,65.0123279 12.7062178,64.7918915 12.630127,64.5927124 C12.5540361,64.3935333 12.4477342,64.2234504 12.3112183,64.0824585 C12.1747023,63.9414666 12.0090952,63.8318078 11.8143921,63.753479 C11.619689,63.6751502 11.4037284,63.6359863 11.1665039,63.6359863 C10.9248035,63.6359863 10.7077239,63.6751502 10.5152588,63.753479 C10.3227936,63.8318078 10.1594245,63.9414666 10.0251465,64.0824585 C9.89086847,64.2234504 9.78680457,64.3935333 9.71295166,64.5927124 C9.63909875,64.7918915 9.60217285,65.0123279 9.60217285,65.2540283 C9.60217285,65.5002047 9.63909875,65.7206411 9.71295166,65.9153442 C9.78680457,66.1100474 9.89198744,66.2756544 10.0285034,66.4121704 C10.1650194,66.5486864 10.3306265,66.6527503 10.5253296,66.7243652 C10.7200327,66.7959802 10.9382312,66.8317871 11.1799316,66.8317871 C11.6722844,66.8317871 12.0560899,66.6930352 12.3313599,66.4155273 C12.6066298,66.1380194 12.7442627,65.750857 12.7442627,65.2540283 Z M12.5361328,60.8631592 C12.5361328,60.6483144 12.5036828,60.4513762 12.4387817,60.2723389 C12.3738807,60.0933015 12.2832444,59.9388841 12.1668701,59.809082 C12.0504958,59.6792799 11.9072681,59.5785729 11.7371826,59.506958 C11.5670971,59.4353431 11.3791107,59.3995361 11.1732178,59.3995361 C10.7569559,59.3995361 10.4279797,59.5304552 10.1862793,59.7922974 C9.94457887,60.0541395 9.82373047,60.4110899 9.82373047,60.8631592 C9.82373047,61.0824799 9.85506154,61.282775 9.91772461,61.4640503 C9.98038768,61.6453256 10.069905,61.799743 10.1862793,61.9273071 C10.3026536,62.0548712 10.4447623,62.1533403 10.6126099,62.2227173 C10.7804574,62.2920943 10.9695628,62.3267822 11.1799316,62.3267822 C11.3903005,62.3267822 11.5794059,62.2920943 11.7472534,62.2227173 C11.9151009,62.1533403 12.0572097,62.0548712 12.173584,61.9273071 C12.2899583,61.799743 12.3794756,61.6453256 12.4421387,61.4640503 C12.5048017,61.282775 12.5361328,61.0824799 12.5361328,60.8631592 Z M22.1906738,63.8843994 C22.1906738,64.658736 22.1145841,65.3155694 21.9624023,65.8549194 C21.8102206,66.3942695 21.595379,66.8329044 21.3178711,67.1708374 C21.0403632,67.5087704 20.7057922,67.7538241 20.3141479,67.9060059 C19.9225037,68.0581876 19.4849878,68.1342773 19.0015869,68.1342773 C18.522662,68.1342773 18.086265,68.0581876 17.6923828,67.9060059 C17.2985006,67.7538241 16.9605727,67.5087704 16.6785889,67.1708374 C16.396605,66.8329044 16.1784065,66.3942695 16.0239868,65.8549194 C15.8695671,65.3155694 15.7923584,64.658736 15.7923584,63.8843994 L15.7923584,62.3066406 C15.7923584,61.5323041 15.8684481,60.8765896 16.0206299,60.3394775 C16.1728116,59.8023655 16.3887722,59.3670874 16.6685181,59.0336304 C16.9482639,58.7001733 17.2850729,58.4595955 17.6789551,58.3118896 C18.0728373,58.1641838 18.5092343,58.090332 18.9881592,58.090332 C19.47156,58.090332 19.910195,58.1641838 20.3040771,58.3118896 C20.6979593,58.4595955 21.0347683,58.7001733 21.3145142,59.0336304 C21.59426,59.3670874 21.8102206,59.8023655 21.9624023,60.3394775 C22.1145841,60.8765896 22.1906738,61.5323041 22.1906738,62.3066406 L22.1906738,63.8843994 Z M20.5592041,62.0582275 C20.5592041,61.5613989 20.5245161,61.1440243 20.4551392,60.8060913 C20.3857622,60.4681583 20.2839362,60.1951304 20.1496582,59.9869995 C20.0153802,59.7788686 19.8508921,59.6289271 19.656189,59.5371704 C19.4614858,59.4454138 19.2388115,59.3995361 18.9881592,59.3995361 C18.7375069,59.3995361 18.5148325,59.4454138 18.3201294,59.5371704 C18.1254263,59.6289271 17.9609382,59.7788686 17.8266602,59.9869995 C17.6923821,60.1951304 17.5905562,60.4681583 17.5211792,60.8060913 C17.4518022,61.1440243 17.4171143,61.5613989 17.4171143,62.0582275 L17.4171143,64.1193848 C17.4171143,64.6117375 17.4529212,65.030231 17.5245361,65.3748779 C17.5961511,65.7195248 17.699096,65.9992665 17.833374,66.2141113 C17.967652,66.4289562 18.1332591,66.5856115 18.3302002,66.684082 C18.5271413,66.7825526 18.7509346,66.8317871 19.0015869,66.8317871 C19.2567151,66.8317871 19.4805085,66.7825526 19.6729736,66.684082 C19.8654388,66.5856115 20.027689,66.4289562 20.159729,66.2141113 C20.2917691,65.9992665 20.3913571,65.7195248 20.4584961,65.3748779 C20.5256351,65.030231 20.5592041,64.6117375 20.5592041,64.1193848 L20.5592041,62.0582275 Z M23.5670166,60.1044922 C23.5670166,59.8269843 23.6128942,59.5662651 23.7046509,59.3223267 C23.7964075,59.0783883 23.9306835,58.8646656 24.1074829,58.6811523 C24.2842823,58.4976391 24.5013618,58.3521734 24.758728,58.244751 C25.0160942,58.1373286 25.3081445,58.0836182 25.6348877,58.0836182 C25.9705827,58.0836182 26.2671089,58.1373286 26.5244751,58.244751 C26.7818413,58.3521734 26.9978019,58.4976391 27.1723633,58.6811523 C27.3469247,58.8646656 27.4800817,59.0783883 27.5718384,59.3223267 C27.663595,59.5662651 27.7094727,59.8269843 27.7094727,60.1044922 L27.7094727,60.62146 C27.7094727,60.8944919 27.663595,61.1529732 27.5718384,61.3969116 C27.4800817,61.64085 27.3469247,61.8534537 27.1723633,62.034729 C26.9978019,62.2160043 26.7829603,62.360351 26.527832,62.4677734 C26.2727038,62.5751958 25.9795345,62.6289062 25.6483154,62.6289062 C25.3170963,62.6289062 25.0228081,62.5751958 24.7654419,62.4677734 C24.5080757,62.360351 24.2898772,62.2160043 24.1108398,62.034729 C23.9318025,61.8534537 23.7964075,61.64085 23.7046509,61.3969116 C23.6128942,61.1529732 23.5670166,60.8944919 23.5670166,60.62146 L23.5670166,60.1044922 Z M24.708374,60.62146 C24.708374,60.755738 24.7273965,60.8855381 24.7654419,61.0108643 C24.8034873,61.1361904 24.8616736,61.2458491 24.9400024,61.3398438 C25.0183313,61.4338384 25.1156814,61.5099281 25.2320557,61.5681152 C25.3484299,61.6263024 25.4871818,61.6553955 25.6483154,61.6553955 C25.8049731,61.6553955 25.941487,61.6263024 26.0578613,61.5681152 C26.1742356,61.5099281 26.2704667,61.4338384 26.3465576,61.3398438 C26.4226485,61.2458491 26.4797158,61.1361904 26.5177612,61.0108643 C26.5558067,60.8855381 26.5748291,60.755738 26.5748291,60.62146 L26.5748291,60.1044922 C26.5748291,59.9702142 26.5558067,59.840414 26.5177612,59.7150879 C26.4797158,59.5897617 26.4215295,59.478984 26.3432007,59.3827515 C26.2648718,59.2865189 26.1675217,59.2093102 26.0511475,59.151123 C25.9347732,59.0929359 25.7960213,59.0638428 25.6348877,59.0638428 C25.47823,59.0638428 25.3417161,59.0929359 25.2253418,59.151123 C25.1089675,59.2093102 25.0127364,59.2865189 24.9366455,59.3827515 C24.8605546,59.478984 24.8034873,59.5897617 24.7654419,59.7150879 C24.7273965,59.840414 24.708374,59.9702142 24.708374,60.1044922 L24.708374,60.62146 Z M28.2667236,65.6031494 C28.2667236,65.3301174 28.3126013,65.0705172 28.4043579,64.8243408 C28.4961146,64.5781645 28.6315095,64.3644418 28.8105469,64.1831665 C28.9895842,64.0018912 29.2066638,63.8575445 29.461792,63.7501221 C29.7169202,63.6426997 30.0100895,63.5889893 30.3413086,63.5889893 C30.6725277,63.5889893 30.9668159,63.6426997 31.2241821,63.7501221 C31.4815483,63.8575445 31.6986279,64.0018912 31.8754272,64.1831665 C32.0522266,64.3644418 32.1865026,64.5781645 32.2782593,64.8243408 C32.3700159,65.0705172 32.4158936,65.3301174 32.4158936,65.6031494 L32.4158936,66.1268311 C32.4158936,66.404339 32.3700159,66.6639392 32.2782593,66.9056396 C32.1865026,67.1473401 32.0533456,67.3599437 31.8787842,67.543457 C31.7042228,67.7269703 31.4882622,67.871317 31.230896,67.9765015 C30.9735298,68.0816859 30.6814795,68.1342773 30.3547363,68.1342773 C30.0235172,68.1342773 29.72811,68.0816859 29.4685059,67.9765015 C29.2089017,67.871317 28.9895842,67.7269703 28.8105469,67.543457 C28.6315095,67.3599437 28.4961146,67.1473401 28.4043579,66.9056396 C28.3126013,66.6639392 28.2667236,66.404339 28.2667236,66.1268311 L28.2667236,65.6031494 Z M29.4080811,66.1268311 C29.4080811,66.2611091 29.4282225,66.3909092 29.4685059,66.5162354 C29.5087893,66.6415615 29.5692135,66.7523392 29.6497803,66.8485718 C29.7303471,66.9448044 29.8288161,67.0220131 29.9451904,67.0802002 C30.0615647,67.1383873 30.1980786,67.1674805 30.3547363,67.1674805 C30.5203459,67.1674805 30.6613357,67.1383873 30.77771,67.0802002 C30.8940842,67.0220131 30.9891964,66.9448044 31.0630493,66.8485718 C31.1369022,66.7523392 31.1906126,66.6415615 31.2241821,66.5162354 C31.2577516,66.3909092 31.2745361,66.2611091 31.2745361,66.1268311 L31.2745361,65.6031494 C31.2745361,65.4688714 31.2555137,65.3390713 31.2174683,65.2137451 C31.1794228,65.088419 31.1212366,64.9787602 31.0429077,64.8847656 C30.9645789,64.790771 30.8672288,64.7146813 30.7508545,64.6564941 C30.6344802,64.598307 30.4979663,64.5692139 30.3413086,64.5692139 C30.1846509,64.5692139 30.047018,64.598307 29.9284058,64.6564941 C29.8097935,64.7146813 29.7124434,64.790771 29.6363525,64.8847656 C29.5602617,64.9787602 29.5031944,65.088419 29.4651489,65.2137451 C29.4271035,65.3390713 29.4080811,65.4688714 29.4080811,65.6031494 L29.4080811,66.1268311 Z M25.9840088,67.2681885 L25.1447754,66.78479 L29.918335,59.1444092 L30.7575684,59.6278076 L25.9840088,67.2681885 Z" id="80%" fill="#000000"></path>
                <path d="M486.875,105.625 L41.875,105.625" id="Line-Copy-18" stroke="#AAA8A8" stroke-width="1.25" stroke-linecap="square" stroke-dasharray="3.125"></path>
                <path d="M13.0799561,100.677612 L13.0799561,102.0271 L12.9658203,102.0271 C12.4331842,102.0271 11.9732889,102.100951 11.5861206,102.248657 C11.1989523,102.396363 10.874452,102.597777 10.6126099,102.852905 C10.3507677,103.108034 10.1482348,103.406798 10.0050049,103.749207 C9.861775,104.091615 9.7677818,104.45528 9.72302246,104.84021 C9.97367476,104.57613 10.269082,104.374716 10.6092529,104.235962 C10.9494239,104.097208 11.3231588,104.027832 11.7304688,104.027832 C12.2049177,104.027832 12.6178164,104.118468 12.9691772,104.299744 C13.3205381,104.481019 13.6103504,104.723835 13.838623,105.028198 C14.0668957,105.332562 14.2369786,105.681679 14.348877,106.075562 C14.4607753,106.469444 14.5167236,106.876748 14.5167236,107.297485 C14.5167236,107.767458 14.4462287,108.204974 14.3052368,108.610046 C14.1642449,109.015118 13.958355,109.367593 13.687561,109.66748 C13.416767,109.967368 13.0844339,110.20347 12.6905518,110.375793 C12.2966696,110.548117 11.8490829,110.634277 11.3477783,110.634277 C10.8151422,110.634277 10.3451762,110.530213 9.93786621,110.322083 C9.53055623,110.113952 9.18703346,109.833091 8.9072876,109.479492 C8.62754173,109.125893 8.41605703,108.71859 8.27282715,108.257568 C8.12959727,107.796547 8.0579834,107.310916 8.0579834,106.800659 L8.0579834,106.162842 C8.0579834,105.679441 8.0949093,105.208356 8.16876221,104.749573 C8.24261512,104.29079 8.36010662,103.858868 8.52124023,103.453796 C8.68237385,103.048724 8.89050165,102.676108 9.14562988,102.335938 C9.40075811,101.995767 9.70735498,101.702597 10.0654297,101.456421 C10.4235044,101.210245 10.8364031,101.018901 11.3041382,100.882385 C11.7718733,100.745869 12.3011445,100.677612 12.8919678,100.677612 L13.0799561,100.677612 Z M11.3276367,105.34375 C11.1396475,105.34375 10.9594939,105.372843 10.7871704,105.43103 C10.614847,105.489217 10.4581916,105.567545 10.3171997,105.666016 C10.1762078,105.764486 10.0531215,105.880859 9.94793701,106.015137 C9.84275257,106.149415 9.75883007,106.292642 9.69616699,106.444824 L9.69616699,106.948364 C9.69616699,107.337771 9.73980669,107.681293 9.8270874,107.978943 C9.91436811,108.276592 10.0318596,108.523884 10.1795654,108.720825 C10.3272712,108.917766 10.4995921,109.066589 10.6965332,109.167297 C10.8934743,109.268006 11.10384,109.318359 11.3276367,109.318359 C11.5738131,109.318359 11.7942495,109.270244 11.9889526,109.174011 C12.1836558,109.077779 12.3492628,108.942384 12.4857788,108.767822 C12.6222948,108.593261 12.7263587,108.385133 12.7979736,108.143433 C12.8695886,107.901732 12.9053955,107.635418 12.9053955,107.344482 C12.9053955,107.07145 12.8718265,106.814088 12.8046875,106.572388 C12.7375485,106.330687 12.6379605,106.119203 12.5059204,105.937927 C12.3738804,105.756652 12.2093923,105.612305 12.0124512,105.504883 C11.8155101,105.39746 11.5872409,105.34375 11.3276367,105.34375 Z M22.1906738,106.384399 C22.1906738,107.158736 22.1145841,107.815569 21.9624023,108.354919 C21.8102206,108.894269 21.595379,109.332904 21.3178711,109.670837 C21.0403632,110.00877 20.7057922,110.253824 20.3141479,110.406006 C19.9225037,110.558188 19.4849878,110.634277 19.0015869,110.634277 C18.522662,110.634277 18.086265,110.558188 17.6923828,110.406006 C17.2985006,110.253824 16.9605727,110.00877 16.6785889,109.670837 C16.396605,109.332904 16.1784065,108.894269 16.0239868,108.354919 C15.8695671,107.815569 15.7923584,107.158736 15.7923584,106.384399 L15.7923584,104.806641 C15.7923584,104.032304 15.8684481,103.37659 16.0206299,102.839478 C16.1728116,102.302365 16.3887722,101.867087 16.6685181,101.53363 C16.9482639,101.200173 17.2850729,100.959595 17.6789551,100.81189 C18.0728373,100.664184 18.5092343,100.590332 18.9881592,100.590332 C19.47156,100.590332 19.910195,100.664184 20.3040771,100.81189 C20.6979593,100.959595 21.0347683,101.200173 21.3145142,101.53363 C21.59426,101.867087 21.8102206,102.302365 21.9624023,102.839478 C22.1145841,103.37659 22.1906738,104.032304 22.1906738,104.806641 L22.1906738,106.384399 Z M20.5592041,104.558228 C20.5592041,104.061399 20.5245161,103.644024 20.4551392,103.306091 C20.3857622,102.968158 20.2839362,102.69513 20.1496582,102.487 C20.0153802,102.278869 19.8508921,102.128927 19.656189,102.03717 C19.4614858,101.945414 19.2388115,101.899536 18.9881592,101.899536 C18.7375069,101.899536 18.5148325,101.945414 18.3201294,102.03717 C18.1254263,102.128927 17.9609382,102.278869 17.8266602,102.487 C17.6923821,102.69513 17.5905562,102.968158 17.5211792,103.306091 C17.4518022,103.644024 17.4171143,104.061399 17.4171143,104.558228 L17.4171143,106.619385 C17.4171143,107.111737 17.4529212,107.530231 17.5245361,107.874878 C17.5961511,108.219525 17.699096,108.499267 17.833374,108.714111 C17.967652,108.928956 18.1332591,109.085611 18.3302002,109.184082 C18.5271413,109.282553 18.7509346,109.331787 19.0015869,109.331787 C19.2567151,109.331787 19.4805085,109.282553 19.6729736,109.184082 C19.8654388,109.085611 20.027689,108.928956 20.159729,108.714111 C20.2917691,108.499267 20.3913571,108.219525 20.4584961,107.874878 C20.5256351,107.530231 20.5592041,107.111737 20.5592041,106.619385 L20.5592041,104.558228 Z M23.5670166,102.604492 C23.5670166,102.326984 23.6128942,102.066265 23.7046509,101.822327 C23.7964075,101.578388 23.9306835,101.364666 24.1074829,101.181152 C24.2842823,100.997639 24.5013618,100.852173 24.758728,100.744751 C25.0160942,100.637329 25.3081445,100.583618 25.6348877,100.583618 C25.9705827,100.583618 26.2671089,100.637329 26.5244751,100.744751 C26.7818413,100.852173 26.9978019,100.997639 27.1723633,101.181152 C27.3469247,101.364666 27.4800817,101.578388 27.5718384,101.822327 C27.663595,102.066265 27.7094727,102.326984 27.7094727,102.604492 L27.7094727,103.12146 C27.7094727,103.394492 27.663595,103.652973 27.5718384,103.896912 C27.4800817,104.14085 27.3469247,104.353454 27.1723633,104.534729 C26.9978019,104.716004 26.7829603,104.860351 26.527832,104.967773 C26.2727038,105.075196 25.9795345,105.128906 25.6483154,105.128906 C25.3170963,105.128906 25.0228081,105.075196 24.7654419,104.967773 C24.5080757,104.860351 24.2898772,104.716004 24.1108398,104.534729 C23.9318025,104.353454 23.7964075,104.14085 23.7046509,103.896912 C23.6128942,103.652973 23.5670166,103.394492 23.5670166,103.12146 L23.5670166,102.604492 Z M24.708374,103.12146 C24.708374,103.255738 24.7273965,103.385538 24.7654419,103.510864 C24.8034873,103.63619 24.8616736,103.745849 24.9400024,103.839844 C25.0183313,103.933838 25.1156814,104.009928 25.2320557,104.068115 C25.3484299,104.126302 25.4871818,104.155396 25.6483154,104.155396 C25.8049731,104.155396 25.941487,104.126302 26.0578613,104.068115 C26.1742356,104.009928 26.2704667,103.933838 26.3465576,103.839844 C26.4226485,103.745849 26.4797158,103.63619 26.5177612,103.510864 C26.5558067,103.385538 26.5748291,103.255738 26.5748291,103.12146 L26.5748291,102.604492 C26.5748291,102.470214 26.5558067,102.340414 26.5177612,102.215088 C26.4797158,102.089762 26.4215295,101.978984 26.3432007,101.882751 C26.2648718,101.786519 26.1675217,101.70931 26.0511475,101.651123 C25.9347732,101.592936 25.7960213,101.563843 25.6348877,101.563843 C25.47823,101.563843 25.3417161,101.592936 25.2253418,101.651123 C25.1089675,101.70931 25.0127364,101.786519 24.9366455,101.882751 C24.8605546,101.978984 24.8034873,102.089762 24.7654419,102.215088 C24.7273965,102.340414 24.708374,102.470214 24.708374,102.604492 L24.708374,103.12146 Z M28.2667236,108.103149 C28.2667236,107.830117 28.3126013,107.570517 28.4043579,107.324341 C28.4961146,107.078164 28.6315095,106.864442 28.8105469,106.683167 C28.9895842,106.501891 29.2066638,106.357544 29.461792,106.250122 C29.7169202,106.1427 30.0100895,106.088989 30.3413086,106.088989 C30.6725277,106.088989 30.9668159,106.1427 31.2241821,106.250122 C31.4815483,106.357544 31.6986279,106.501891 31.8754272,106.683167 C32.0522266,106.864442 32.1865026,107.078164 32.2782593,107.324341 C32.3700159,107.570517 32.4158936,107.830117 32.4158936,108.103149 L32.4158936,108.626831 C32.4158936,108.904339 32.3700159,109.163939 32.2782593,109.40564 C32.1865026,109.64734 32.0533456,109.859944 31.8787842,110.043457 C31.7042228,110.22697 31.4882622,110.371317 31.230896,110.476501 C30.9735298,110.581686 30.6814795,110.634277 30.3547363,110.634277 C30.0235172,110.634277 29.72811,110.581686 29.4685059,110.476501 C29.2089017,110.371317 28.9895842,110.22697 28.8105469,110.043457 C28.6315095,109.859944 28.4961146,109.64734 28.4043579,109.40564 C28.3126013,109.163939 28.2667236,108.904339 28.2667236,108.626831 L28.2667236,108.103149 Z M29.4080811,108.626831 C29.4080811,108.761109 29.4282225,108.890909 29.4685059,109.016235 C29.5087893,109.141561 29.5692135,109.252339 29.6497803,109.348572 C29.7303471,109.444804 29.8288161,109.522013 29.9451904,109.5802 C30.0615647,109.638387 30.1980786,109.66748 30.3547363,109.66748 C30.5203459,109.66748 30.6613357,109.638387 30.77771,109.5802 C30.8940842,109.522013 30.9891964,109.444804 31.0630493,109.348572 C31.1369022,109.252339 31.1906126,109.141561 31.2241821,109.016235 C31.2577516,108.890909 31.2745361,108.761109 31.2745361,108.626831 L31.2745361,108.103149 C31.2745361,107.968871 31.2555137,107.839071 31.2174683,107.713745 C31.1794228,107.588419 31.1212366,107.47876 31.0429077,107.384766 C30.9645789,107.290771 30.8672288,107.214681 30.7508545,107.156494 C30.6344802,107.098307 30.4979663,107.069214 30.3413086,107.069214 C30.1846509,107.069214 30.047018,107.098307 29.9284058,107.156494 C29.8097935,107.214681 29.7124434,107.290771 29.6363525,107.384766 C29.5602617,107.47876 29.5031944,107.588419 29.4651489,107.713745 C29.4271035,107.839071 29.4080811,107.968871 29.4080811,108.103149 L29.4080811,108.626831 Z M25.9840088,109.768188 L25.1447754,109.28479 L29.918335,101.644409 L30.7575684,102.127808 L25.9840088,109.768188 Z" id="60%" fill="#000000"></path>
                <path d="M486.875,19.375 L41.875,19.375" id="Line-Copy-20" stroke="#AAA8A8" stroke-width="1.25" stroke-linecap="square" stroke-dasharray="3.125"></path>
                <path d="M4.60705566,24.25 L2.9822998,24.25 L2.9822998,16.4014893 L0.585449219,17.2205811 L0.585449219,15.8442383 L4.39892578,14.44104 L4.60705566,14.44104 L4.60705566,24.25 Z M14.3757324,20.1343994 C14.3757324,20.908736 14.2996427,21.5655694 14.1474609,22.1049194 C13.9952792,22.6442695 13.7804376,23.0829044 13.5029297,23.4208374 C13.2254218,23.7587704 12.8908508,24.0038241 12.4992065,24.1560059 C12.1075623,24.3081876 11.6700464,24.3842773 11.1866455,24.3842773 C10.7077206,24.3842773 10.2713236,24.3081876 9.87744141,24.1560059 C9.48355923,24.0038241 9.14563129,23.7587704 8.86364746,23.4208374 C8.58166363,23.0829044 8.36346513,22.6442695 8.20904541,22.1049194 C8.05462569,21.5655694 7.97741699,20.908736 7.97741699,20.1343994 L7.97741699,18.5566406 C7.97741699,17.7823041 8.05350673,17.1265896 8.20568848,16.5894775 C8.35787023,16.0523655 8.5738308,15.6170874 8.85357666,15.2836304 C9.13332253,14.9501733 9.47013149,14.7095955 9.86401367,14.5618896 C10.2578958,14.4141838 10.6942929,14.340332 11.1732178,14.340332 C11.6566186,14.340332 12.0952536,14.4141838 12.4891357,14.5618896 C12.8830179,14.7095955 13.2198269,14.9501733 13.4995728,15.2836304 C13.7793186,15.6170874 13.9952792,16.0523655 14.1474609,16.5894775 C14.2996427,17.1265896 14.3757324,17.7823041 14.3757324,18.5566406 L14.3757324,20.1343994 Z M12.7442627,18.3082275 C12.7442627,17.8113989 12.7095747,17.3940243 12.6401978,17.0560913 C12.5708208,16.7181583 12.4689948,16.4451304 12.3347168,16.2369995 C12.2004388,16.0288686 12.0359507,15.8789271 11.8412476,15.7871704 C11.6465444,15.6954138 11.4238701,15.6495361 11.1732178,15.6495361 C10.9225655,15.6495361 10.6998911,15.6954138 10.505188,15.7871704 C10.3104849,15.8789271 10.1459968,16.0288686 10.0117188,16.2369995 C9.87744073,16.4451304 9.77561477,16.7181583 9.70623779,17.0560913 C9.63686082,17.3940243 9.60217285,17.8113989 9.60217285,18.3082275 L9.60217285,20.3693848 C9.60217285,20.8617375 9.63797979,21.280231 9.70959473,21.6248779 C9.78120967,21.9695248 9.8841546,22.2492665 10.0184326,22.4641113 C10.1527106,22.6789562 10.3183177,22.8356115 10.5152588,22.934082 C10.7121999,23.0325526 10.9359932,23.0817871 11.1866455,23.0817871 C11.4417737,23.0817871 11.6655671,23.0325526 11.8580322,22.934082 C12.0504974,22.8356115 12.2127475,22.6789562 12.3447876,22.4641113 C12.4768276,22.2492665 12.5764157,21.9695248 12.6435547,21.6248779 C12.7106937,21.280231 12.7442627,20.8617375 12.7442627,20.3693848 L12.7442627,18.3082275 Z M22.1906738,20.1343994 C22.1906738,20.908736 22.1145841,21.5655694 21.9624023,22.1049194 C21.8102206,22.6442695 21.595379,23.0829044 21.3178711,23.4208374 C21.0403632,23.7587704 20.7057922,24.0038241 20.3141479,24.1560059 C19.9225037,24.3081876 19.4849878,24.3842773 19.0015869,24.3842773 C18.522662,24.3842773 18.086265,24.3081876 17.6923828,24.1560059 C17.2985006,24.0038241 16.9605727,23.7587704 16.6785889,23.4208374 C16.396605,23.0829044 16.1784065,22.6442695 16.0239868,22.1049194 C15.8695671,21.5655694 15.7923584,20.908736 15.7923584,20.1343994 L15.7923584,18.5566406 C15.7923584,17.7823041 15.8684481,17.1265896 16.0206299,16.5894775 C16.1728116,16.0523655 16.3887722,15.6170874 16.6685181,15.2836304 C16.9482639,14.9501733 17.2850729,14.7095955 17.6789551,14.5618896 C18.0728373,14.4141838 18.5092343,14.340332 18.9881592,14.340332 C19.47156,14.340332 19.910195,14.4141838 20.3040771,14.5618896 C20.6979593,14.7095955 21.0347683,14.9501733 21.3145142,15.2836304 C21.59426,15.6170874 21.8102206,16.0523655 21.9624023,16.5894775 C22.1145841,17.1265896 22.1906738,17.7823041 22.1906738,18.5566406 L22.1906738,20.1343994 Z M20.5592041,18.3082275 C20.5592041,17.8113989 20.5245161,17.3940243 20.4551392,17.0560913 C20.3857622,16.7181583 20.2839362,16.4451304 20.1496582,16.2369995 C20.0153802,16.0288686 19.8508921,15.8789271 19.656189,15.7871704 C19.4614858,15.6954138 19.2388115,15.6495361 18.9881592,15.6495361 C18.7375069,15.6495361 18.5148325,15.6954138 18.3201294,15.7871704 C18.1254263,15.8789271 17.9609382,16.0288686 17.8266602,16.2369995 C17.6923821,16.4451304 17.5905562,16.7181583 17.5211792,17.0560913 C17.4518022,17.3940243 17.4171143,17.8113989 17.4171143,18.3082275 L17.4171143,20.3693848 C17.4171143,20.8617375 17.4529212,21.280231 17.5245361,21.6248779 C17.5961511,21.9695248 17.699096,22.2492665 17.833374,22.4641113 C17.967652,22.6789562 18.1332591,22.8356115 18.3302002,22.934082 C18.5271413,23.0325526 18.7509346,23.0817871 19.0015869,23.0817871 C19.2567151,23.0817871 19.4805085,23.0325526 19.6729736,22.934082 C19.8654388,22.8356115 20.027689,22.6789562 20.159729,22.4641113 C20.2917691,22.2492665 20.3913571,21.9695248 20.4584961,21.6248779 C20.5256351,21.280231 20.5592041,20.8617375 20.5592041,20.3693848 L20.5592041,18.3082275 Z M23.5670166,16.3544922 C23.5670166,16.0769843 23.6128942,15.8162651 23.7046509,15.5723267 C23.7964075,15.3283883 23.9306835,15.1146656 24.1074829,14.9311523 C24.2842823,14.7476391 24.5013618,14.6021734 24.758728,14.494751 C25.0160942,14.3873286 25.3081445,14.3336182 25.6348877,14.3336182 C25.9705827,14.3336182 26.2671089,14.3873286 26.5244751,14.494751 C26.7818413,14.6021734 26.9978019,14.7476391 27.1723633,14.9311523 C27.3469247,15.1146656 27.4800817,15.3283883 27.5718384,15.5723267 C27.663595,15.8162651 27.7094727,16.0769843 27.7094727,16.3544922 L27.7094727,16.87146 C27.7094727,17.1444919 27.663595,17.4029732 27.5718384,17.6469116 C27.4800817,17.89085 27.3469247,18.1034537 27.1723633,18.284729 C26.9978019,18.4660043 26.7829603,18.610351 26.527832,18.7177734 C26.2727038,18.8251958 25.9795345,18.8789062 25.6483154,18.8789062 C25.3170963,18.8789062 25.0228081,18.8251958 24.7654419,18.7177734 C24.5080757,18.610351 24.2898772,18.4660043 24.1108398,18.284729 C23.9318025,18.1034537 23.7964075,17.89085 23.7046509,17.6469116 C23.6128942,17.4029732 23.5670166,17.1444919 23.5670166,16.87146 L23.5670166,16.3544922 Z M24.708374,16.87146 C24.708374,17.005738 24.7273965,17.1355381 24.7654419,17.2608643 C24.8034873,17.3861904 24.8616736,17.4958491 24.9400024,17.5898438 C25.0183313,17.6838384 25.1156814,17.7599281 25.2320557,17.8181152 C25.3484299,17.8763024 25.4871818,17.9053955 25.6483154,17.9053955 C25.8049731,17.9053955 25.941487,17.8763024 26.0578613,17.8181152 C26.1742356,17.7599281 26.2704667,17.6838384 26.3465576,17.5898438 C26.4226485,17.4958491 26.4797158,17.3861904 26.5177612,17.2608643 C26.5558067,17.1355381 26.5748291,17.005738 26.5748291,16.87146 L26.5748291,16.3544922 C26.5748291,16.2202142 26.5558067,16.090414 26.5177612,15.9650879 C26.4797158,15.8397617 26.4215295,15.728984 26.3432007,15.6327515 C26.2648718,15.5365189 26.1675217,15.4593102 26.0511475,15.401123 C25.9347732,15.3429359 25.7960213,15.3138428 25.6348877,15.3138428 C25.47823,15.3138428 25.3417161,15.3429359 25.2253418,15.401123 C25.1089675,15.4593102 25.0127364,15.5365189 24.9366455,15.6327515 C24.8605546,15.728984 24.8034873,15.8397617 24.7654419,15.9650879 C24.7273965,16.090414 24.708374,16.2202142 24.708374,16.3544922 L24.708374,16.87146 Z M28.2667236,21.8531494 C28.2667236,21.5801174 28.3126013,21.3205172 28.4043579,21.0743408 C28.4961146,20.8281645 28.6315095,20.6144418 28.8105469,20.4331665 C28.9895842,20.2518912 29.2066638,20.1075445 29.461792,20.0001221 C29.7169202,19.8926997 30.0100895,19.8389893 30.3413086,19.8389893 C30.6725277,19.8389893 30.9668159,19.8926997 31.2241821,20.0001221 C31.4815483,20.1075445 31.6986279,20.2518912 31.8754272,20.4331665 C32.0522266,20.6144418 32.1865026,20.8281645 32.2782593,21.0743408 C32.3700159,21.3205172 32.4158936,21.5801174 32.4158936,21.8531494 L32.4158936,22.3768311 C32.4158936,22.654339 32.3700159,22.9139392 32.2782593,23.1556396 C32.1865026,23.3973401 32.0533456,23.6099437 31.8787842,23.793457 C31.7042228,23.9769703 31.4882622,24.121317 31.230896,24.2265015 C30.9735298,24.3316859 30.6814795,24.3842773 30.3547363,24.3842773 C30.0235172,24.3842773 29.72811,24.3316859 29.4685059,24.2265015 C29.2089017,24.121317 28.9895842,23.9769703 28.8105469,23.793457 C28.6315095,23.6099437 28.4961146,23.3973401 28.4043579,23.1556396 C28.3126013,22.9139392 28.2667236,22.654339 28.2667236,22.3768311 L28.2667236,21.8531494 Z M29.4080811,22.3768311 C29.4080811,22.5111091 29.4282225,22.6409092 29.4685059,22.7662354 C29.5087893,22.8915615 29.5692135,23.0023392 29.6497803,23.0985718 C29.7303471,23.1948044 29.8288161,23.2720131 29.9451904,23.3302002 C30.0615647,23.3883873 30.1980786,23.4174805 30.3547363,23.4174805 C30.5203459,23.4174805 30.6613357,23.3883873 30.77771,23.3302002 C30.8940842,23.2720131 30.9891964,23.1948044 31.0630493,23.0985718 C31.1369022,23.0023392 31.1906126,22.8915615 31.2241821,22.7662354 C31.2577516,22.6409092 31.2745361,22.5111091 31.2745361,22.3768311 L31.2745361,21.8531494 C31.2745361,21.7188714 31.2555137,21.5890713 31.2174683,21.4637451 C31.1794228,21.338419 31.1212366,21.2287602 31.0429077,21.1347656 C30.9645789,21.040771 30.8672288,20.9646813 30.7508545,20.9064941 C30.6344802,20.848307 30.4979663,20.8192139 30.3413086,20.8192139 C30.1846509,20.8192139 30.047018,20.848307 29.9284058,20.9064941 C29.8097935,20.9646813 29.7124434,21.040771 29.6363525,21.1347656 C29.5602617,21.2287602 29.5031944,21.338419 29.4651489,21.4637451 C29.4271035,21.5890713 29.4080811,21.7188714 29.4080811,21.8531494 L29.4080811,22.3768311 Z M25.9840088,23.5181885 L25.1447754,23.03479 L29.918335,15.3944092 L30.7575684,15.8778076 L25.9840088,23.5181885 Z" id="100%" fill="#000000"></path>
                <use id="Rectangle-6-Copy" stroke="#35649C" mask="url(#mask-2)" stroke-width="2.5" fill="#AAD0E9" xlink:href="#path-1"></use>
                <use id="Rectangle-6" stroke="#0F5CB6" mask="url(#mask-4)" stroke-width="2.5" fill="#87B5EB" xlink:href="#path-3"></use>
                <path d="M39.375,0.625 L39.375,239.375" id="Line" stroke="#979797" stroke-width="1.25" stroke-linecap="square"></path>
                <path d="M484.375,239.375 L39.375,239.375" id="Line-Copy-10" stroke="#979797" stroke-width="1.25" stroke-linecap="square"></path>
            </g>
        </g>
    </g>
</svg>