<?xml version="1.0" encoding="UTF-8"?>
<svg width="1670px" height="579px" viewBox="0 0 1670 579" version="1.1" xmlns="http://www.w3.org/2000/svg" xmlns:xlink="http://www.w3.org/1999/xlink" style="background: #FFFFFF;">
    <!-- Generator: Sketch 42 (36781) - http://www.bohemiancoding.com/sketch -->
    <title>ClassInSight</title>
    <desc>Created with Sketch.</desc>
    <defs></defs>
    <g id="Final" stroke="none" stroke-width="1" fill="none" fill-rule="evenodd">
        <g id="ClassInSight">
            <text id="Class" font-family="MuseoSansRounded-700, Museo Sans Rounded" font-size="194.4" font-weight="500" fill="#093263">
                <tspan x="65" y="252">Class</tspan>
            </text>
            <text id="InSight" font-family="MuseoSansRounded-700, Museo Sans Rounded" font-size="194.4" font-weight="500" fill="#093263">
                <tspan x="973" y="258">InSight</tspan>
            </text>
            <path d="M702.323947,313.450828 C701.706362,315.026657 701.926586,315.927131 701.926586,315.927131 L702.73567,327.618925 C702.333522,343.616708 695.334231,348.847121 695.334231,348.847121 L705.234732,412.57482 C693.974588,408.517897 683.418202,403.081524 673.761862,396.5004 L669.644632,350.518746 C669.644632,350.518746 667.432818,349.402733 663.033127,347.376667 C658.643011,345.35539 654.042246,339.674739 652.869314,337.730099 C651.72032,335.780668 649.001033,330.329926 642.389528,325.339001 C635.792386,320.343286 635.155651,322.728584 633.41301,319.696669 C631.660793,316.674333 636.050909,314.76801 636.050909,314.76801 C636.050909,314.76801 648.249399,312.387502 658.556836,325.252785 C658.556836,325.252785 658.868022,325.17136 659.42337,325.094723 L659.566994,324.606168 C659.437732,324.610958 660.534064,316.602487 660.342565,314.97397 C660.084041,312.809 659.145696,310.725457 659.145696,310.725457 L648.699422,286.082164 C648.699422,286.082164 646.707832,281.929446 650.403764,279.984805 C654.094908,278.040164 656.110436,281.388203 656.110436,281.388203 C656.110436,281.388203 667.179082,303.521664 668.428613,306.261404 C669.678144,308.996355 671.344186,305.461515 671.344186,305.461515 L667.356218,275.884774 C667.356218,275.884774 666.207224,271.051911 671.392061,269.969426 C676.576898,268.896521 677.031708,276.584079 677.031708,276.584079 C677.031708,276.584079 680.521779,302.046419 680.990951,305.001699 C681.464912,307.952188 683.083079,305.102283 683.083079,305.102283 C683.083079,305.102283 686.984872,280.612263 687.363083,278.021005 C687.755656,275.424958 688.559952,272.555894 692.389933,272.680428 C696.219914,272.800172 695.693292,281.0625 695.693292,281.0625 C695.693292,281.0625 692.768144,305.916542 692.638882,307.779757 C692.514407,309.647762 693.735214,309.154417 693.735214,309.154417 C693.735214,309.154417 703.008556,290.024133 703.764977,288.663842 C704.530973,287.293972 706.019879,284.338693 709.782835,285.861835 C713.541004,287.375398 709.806773,295.685624 709.806773,295.685624 C709.806773,295.685624 702.951106,311.884577 702.323947,313.450828 Z M871.96339,300.47059 C868.784505,298.291251 866.792915,300.734026 865.811483,301.83088 C864.83005,302.937314 852.334736,318.805774 852.334736,318.805774 C852.334736,318.805774 851.104355,319.006944 851.602252,317.311371 C852.10015,315.606218 859.879799,293.156633 859.879799,293.156633 C859.879799,293.156633 862.043738,285.588819 858.524943,284.688345 C855.006148,283.787871 853.670442,286.292913 852.770396,288.615945 C851.903863,290.934186 843.291193,312.861688 843.291193,312.861688 C843.291193,312.861688 841.194278,315.179929 841.376202,312.358763 C841.538977,309.523228 843.487479,285.18169 843.487479,285.18169 C843.487479,285.18169 844.636474,277.958738 839.604836,277.896472 C834.563623,277.843784 834.668948,282.561694 834.668948,282.561694 L832.327872,310.806882 C832.327872,310.806882 830.05382,313.752582 829.455386,310.960155 C828.856951,308.158148 823.097617,285.36849 823.097617,285.36849 C823.097617,285.36849 821.919898,281.84323 818.094704,282.896976 C814.26951,283.945933 815.270093,288.204026 815.270093,288.204026 L819.937882,313.192181 C819.937882,313.192181 820.387905,315.309253 820.186831,317.373637 C820.038419,318.8872 817.505844,326.13889 817.505844,326.13889 C817.299983,326.114941 817.271258,326.569968 817.271258,326.569968 C816.739848,326.53165 816.428662,326.53644 816.428662,326.53644 C809.491609,312.492876 797.695267,312.215071 797.695267,312.215071 C797.695267,312.215071 793.223763,313.096386 794.229134,316.252835 C795.229716,319.428443 796.316473,317.349689 801.419923,323.322514 C806.532948,329.300129 807.945254,334.913722 808.620288,336.954158 C809.304897,338.994594 812.411969,345.216487 816.083964,347.975386 C819.746383,350.748654 821.570412,352.243058 821.570412,352.243058 L814.508884,407.516838 C825.041332,402.564231 834.812572,396.351918 843.645466,389.100228 L845.718444,355.93117 C845.718444,355.93117 853.277869,352.516074 856.911564,337.754047 L858.539306,326.747189 C858.539306,326.747189 858.520156,325.865874 859.424989,324.534322 C860.320247,323.19798 869.981375,309.580705 869.981375,309.580705 C869.981375,309.580705 875.147062,302.640349 871.96339,300.47059 Z M820.153319,213.076709 C814.370047,209.905891 811.382662,214.384312 809.884182,216.439117 C808.390489,218.489133 789.733693,247.610847 789.733693,247.610847 C789.733693,247.610847 787.675078,248.171248 788.24,245.187231 C788.795348,242.193633 798.312851,202.620672 798.312851,202.620672 C798.312851,202.620672 800.735314,189.372208 794.583407,188.433416 C788.431499,187.504204 786.559596,191.982625 785.444114,196.092236 C784.323845,200.197056 773.317436,239.022815 773.317436,239.022815 C773.317436,239.022815 770.143339,243.319226 769.961415,238.462414 C769.779491,233.605601 769.032645,191.795825 769.032645,191.795825 C769.032645,191.795825 769.779491,179.284983 761.190758,180.032185 C752.606813,180.779387 753.540371,188.811807 753.540371,188.811807 L754.282429,237.341611 C754.282429,237.341611 750.921621,242.749245 749.427928,238.088813 C747.939023,233.418801 734.318652,195.527044 734.318652,195.527044 C734.318652,195.527044 731.70469,189.73623 725.361284,192.164636 C719.017877,194.593042 721.440341,201.68667 721.440341,201.68667 L733.571806,243.501237 C733.571806,243.501237 734.687288,247.050445 734.687288,250.590075 C734.687288,254.139284 731.608941,265.96998 731.608941,265.96998 C731.273817,265.96519 731.273817,266.745921 731.273817,266.745921 C730.364197,266.774659 729.842362,266.841716 729.842362,266.841716 C715.671431,244.061638 695.516155,245.556042 695.516155,245.556042 C695.516155,245.556042 688.052479,247.797647 690.307381,253.023271 C692.54792,258.248894 694.036825,254.522464 703.74104,263.848118 C713.440467,273.183352 716.801276,282.518586 718.294968,285.876204 C719.788661,289.243403 726.132068,299.321048 732.848897,303.421079 C739.556152,307.53069 742.921748,309.772295 742.921748,309.772295 L739.704563,420.315065 C744.329266,420.765302 749.020993,421 753.770169,421 C765.738861,421 777.358066,419.534335 788.436287,416.789805 L784.71163,312.013901 C784.71163,312.013901 797.029807,304.925063 800.759252,279.160967 L801.688022,260.116899 C801.688022,260.116899 801.506098,258.622495 802.798717,256.194089 C804.110485,253.775262 818.286203,228.945169 818.286203,228.945169 C818.286203,228.945169 825.931803,216.252317 820.153319,213.076709 Z" id="Shape" fill="#1C9AFF" fill-rule="nonzero"></path>
            <path d="M1051.13752,488.072921 L937.499533,415.306139 C926.809231,408.318086 914.033177,407.026178 902.74788,410.686586 L901.806348,412.115516 L874.907326,394.51815 C912.293959,316.462056 887.06877,220.919517 812.550502,172.166267 C731.310748,119.021831 622.223902,141.636762 568.981623,222.713835 C515.687036,303.830057 538.362245,412.670123 619.608538,465.821084 C694.133344,514.587384 792.006816,499.560787 848.825606,434.214988 L875.718089,451.812354 L874.979249,452.941143 C876.116932,464.724919 882.393807,475.914938 893.084108,482.909516 L1006.74171,555.656723 C1025.4481,567.923333 1050.57522,562.683925 1062.8282,544.016493 C1075.09426,525.37516 1069.87661,500.313432 1051.13752,488.072921 Z M835.814168,397.304237 C792.471043,463.263365 703.718654,481.695904 637.608783,438.462628 C571.511988,395.209778 553.067131,306.616144 596.384103,240.670065 C639.720689,174.717461 728.460001,156.317545 794.543719,199.550821 C860.679744,242.803672 879.150755,331.364682 835.814168,397.304237 Z" id="Shape" fill="#093263" fill-rule="nonzero" transform="translate(804.802711, 352.850591) scale(1, -1) rotate(-75.000000) translate(-804.802711, -352.850591) "></path>
        </g>
    </g>
</svg>