<?xml version="1.0" encoding="UTF-8"?>
<svg width="1670px" height="579px" viewBox="0 0 1670 579" version="1.1" xmlns="http://www.w3.org/2000/svg" xmlns:xlink="http://www.w3.org/1999/xlink">
    <!-- Generator: Sketch 42 (36781) - http://www.bohemiancoding.com/sketch -->
    <title>ClassInSight</title>
    <desc>Created with Sketch.</desc>
    <defs></defs>
    <g id="Final" stroke="none" stroke-width="1" fill="none" fill-rule="evenodd">
        <g id="ClassInSight">
            <path d="M72.776,276.0048 C72.776,316.6344 100.7696,347.9328 144.1208,347.9328 C168.6152,347.9328 185.1392,337.0464 192.9152,330.8256 C196.8032,327.5208 196.9976,323.4384 194.0816,319.5504 L190.1936,314.3016 C187.0832,309.8304 183.1952,309.8304 178.9184,312.9408 C172.5032,317.6064 160.6448,324.9936 145.0928,324.9936 C115.3496,324.9936 98.6312,301.4712 98.6312,275.616 C98.6312,250.1496 114.7664,228.1824 144.8984,228.1824 C159.0896,228.1824 169.976,234.0144 176.0024,237.9024 C180.668,240.8184 184.3616,240.4296 187.0832,235.9584 L190.5824,230.3208 C193.304,226.044 193.1096,222.156 189.0272,219.0456 C181.64,213.7968 166.4768,205.2432 143.9264,205.2432 C102.1304,205.2432 72.776,235.9584 72.776,276.0048 Z M213.9104,314.6904 C213.9104,343.0728 230.8232,346.572 244.0424,346.572 C249.8744,346.572 252.2072,343.2672 252.2072,338.2128 L252.2072,331.6032 C252.2072,327.132 249.68,324.9936 246.1808,324.6048 C242.4872,324.216 238.4048,322.4664 238.4048,312.7464 L238.4048,215.7408 C238.4048,210.492 235.6832,207.576 230.4344,207.576 L221.8808,207.576 C216.632,207.576 213.9104,210.492 213.9104,215.7408 L213.9104,314.6904 Z M260.7608,318.1896 C260.7608,289.224 296.5304,284.364 318.692,284.364 L322.7744,284.364 L322.7744,282.0312 C322.7744,269.0064 314.4152,264.5352 304.3064,264.5352 C295.9472,264.5352 288.3656,267.6456 283.7,270.1728 C278.84,272.3112 275.1464,271.5336 272.8136,266.868 L270.8696,263.1744 C268.5368,258.7032 269.3144,254.8152 273.98,252.288 C280.3952,248.9832 291.6704,244.1232 306.4448,244.1232 C332.1056,244.1232 347.4632,258.5088 347.4632,283.5864 L347.4632,337.4352 C347.4632,342.8784 344.7416,345.6 339.2984,345.6 L332.6888,345.6 C327.44,345.6 324.7184,342.8784 324.7184,337.4352 L324.7184,333.5472 C324.7184,330.8256 325.1072,329.2704 325.1072,329.2704 L324.7184,329.2704 C324.7184,329.2704 315.3872,347.9328 293.6144,347.9328 C275.5352,347.9328 260.7608,336.2688 260.7608,318.1896 Z M285.2552,316.0512 C285.2552,322.6608 290.3096,329.076 300.224,329.076 C314.0264,329.076 322.9688,315.0792 322.9688,303.0264 L322.9688,299.3328 L318.8864,299.3328 C306.4448,299.3328 285.2552,301.2768 285.2552,316.0512 Z M368.0696,337.824 C374.096,341.9064 385.1768,347.9328 401.1176,347.9328 C424.0568,347.9328 438.8312,334.908 438.8312,317.412 C438.8312,283.5864 389.648,290.0016 389.648,273.672 C389.648,267.4512 394.508,263.952 403.0616,263.952 C411.2264,263.952 417.6416,266.868 421.9184,268.812 C426.7784,270.9504 430.472,270.3672 432.8048,265.7016 L434.7488,262.2024 C436.8872,257.7312 436.304,253.6488 431.8328,251.316 C426.584,248.4 417.4472,244.1232 404.228,244.1232 C383.4272,244.1232 366.32,254.4264 366.32,273.8664 C366.32,307.8864 415.5032,301.86 415.5032,317.9952 C415.5032,324.216 410.2544,328.104 401.7008,328.104 C391.592,328.104 384.2048,323.8272 379.5392,321.3 C374.6792,318.7728 371.3744,319.1616 368.4584,323.244 L366.1256,326.7432 C363.2096,331.02 363.5984,335.2968 368.0696,337.824 Z M454.9664,337.824 C460.9928,341.9064 472.0736,347.9328 488.0144,347.9328 C510.9536,347.9328 525.728,334.908 525.728,317.412 C525.728,283.5864 476.5448,290.0016 476.5448,273.672 C476.5448,267.4512 481.4048,263.952 489.9584,263.952 C498.1232,263.952 504.5384,266.868 508.8152,268.812 C513.6752,270.9504 517.3688,270.3672 519.7016,265.7016 L521.6456,262.2024 C523.784,257.7312 523.2008,253.6488 518.7296,251.316 C513.4808,248.4 504.344,244.1232 491.1248,244.1232 C470.324,244.1232 453.2168,254.4264 453.2168,273.8664 C453.2168,307.8864 502.4,301.86 502.4,317.9952 C502.4,324.216 497.1512,328.104 488.5976,328.104 C478.4888,328.104 471.1016,323.8272 466.436,321.3 C461.576,318.7728 458.2712,319.1616 455.3552,323.244 L453.0224,326.7432 C450.1064,331.02 450.4952,335.2968 454.9664,337.824 Z" id="Class" fill="#093263"></path>
            <path d="M988.9408,343.4352 C988.9408,348.8784 991.6624,351.6 996.9112,351.6 L1005.8536,351.6 C1011.1024,351.6 1013.824,348.8784 1013.824,343.4352 L1013.824,221.7408 C1013.824,216.492 1011.1024,213.576 1005.8536,213.576 L996.9112,213.576 C991.6624,213.576 988.9408,216.492 988.9408,221.7408 L988.9408,343.4352 Z M1067.42167,267.864371 L1065.5344,263.634 L1065.5344,266.6472 C1065.5344,268.7856 1065.1456,271.1184 1065.1456,271.1184 L1065.5344,271.1184 C1066.06151,270.088135 1066.68903,268.992904 1067.42167,267.864371 Z M1065.5344,263.634 L1067.42167,267.864371 C1072.63347,259.836391 1083.16544,250.1232 1100.7208,250.1232 C1122.688,250.1232 1135.324,261.5928 1135.324,287.8368 L1135.324,343.4352 C1135.324,348.8784 1132.6024,351.6 1127.1592,351.6 L1118.8,351.6 C1113.5512,351.6 1110.6352,348.8784 1110.6352,343.4352 L1110.6352,292.8912 C1110.6352,280.8384 1107.5248,272.6736 1095.0832,272.6736 C1077.5872,272.6736 1066.5064,287.2536 1066.5064,305.1384 L1066.5064,343.4352 C1066.5064,348.8784 1063.7848,351.6 1058.536,351.6 L1049.9824,351.6 C1044.7336,351.6 1042.012,348.8784 1042.012,343.4352 L1042.012,260.6208 C1042.012,255.372 1044.7336,252.456 1049.9824,252.456 L1057.564,252.456 C1062.8128,252.456 1065.5344,255.372 1065.5344,260.6208 L1065.5344,263.634 Z M1157.2912,339.936 C1164.0952,345.1848 1180.036,353.9328 1199.6704,353.9328 C1228.636,353.9328 1245.3544,335.4648 1245.3544,313.1088 C1245.3544,269.1744 1181.008,275.784 1181.008,249.9288 C1181.008,240.5976 1189.1728,234.3768 1202.0032,234.3768 C1212.6952,234.3768 1220.2768,238.6536 1225.9144,241.9584 C1229.9968,244.0968 1234.0792,244.8744 1236.9952,239.2368 L1240.4944,232.8216 C1242.8272,228.5448 1242.244,224.8512 1237.9672,221.7408 C1232.1352,217.464 1218.7216,211.2432 1202.392,211.2432 C1176.148,211.2432 1155.9304,226.9896 1155.9304,251.2896 C1155.9304,294.252 1220.2768,288.8088 1220.2768,315.0528 C1220.2768,324.384 1212.5008,330.7992 1199.6704,330.7992 C1186.0624,330.7992 1176.148,323.8008 1171.6768,320.6904 C1166.8168,317.9688 1163.512,318.1632 1160.4016,322.44 L1156.1248,328.6608 C1152.2368,333.9096 1154.1808,337.2144 1157.2912,339.936 Z M1273.1536,235.5432 L1281.7072,235.5432 C1286.956,235.5432 1289.872,232.8216 1289.872,227.5728 L1289.872,221.7408 C1289.872,216.492 1286.956,213.576 1281.7072,213.576 L1273.1536,213.576 C1267.9048,213.576 1265.1832,216.492 1265.1832,221.7408 L1265.1832,227.5728 C1265.1832,232.8216 1267.9048,235.5432 1273.1536,235.5432 Z M1265.1832,343.4352 C1265.1832,348.8784 1267.9048,351.6 1273.1536,351.6 L1281.7072,351.6 C1286.956,351.6 1289.6776,348.8784 1289.6776,343.4352 L1289.6776,260.6208 C1289.6776,255.372 1286.956,252.456 1281.7072,252.456 L1273.1536,252.456 C1267.9048,252.456 1265.1832,255.372 1265.1832,260.6208 L1265.1832,343.4352 Z M1377.97487,338.834851 L1380.6568,340.996869 L1380.6568,339.936 C1380.6568,337.6032 1381.0456,334.8816 1381.0456,334.8816 L1380.6568,334.8816 C1379.83543,336.289663 1378.94324,337.609194 1377.97487,338.834851 Z M1380.6568,340.996869 L1377.97487,338.834851 C1372.52591,345.731596 1364.66524,349.656 1353.4408,349.656 C1324.4752,349.656 1308.5344,326.7168 1308.5344,299.3064 C1308.5344,272.2848 1323.6976,250.1232 1353.2464,250.1232 C1376.38,250.1232 1382.6008,265.2864 1382.6008,265.2864 L1382.9896,265.2864 C1382.9896,265.2864 1382.7952,264.3144 1382.7952,262.7592 L1382.7952,259.0656 C1382.7952,255.372 1385.5168,252.456 1390.7656,252.456 L1397.3752,252.456 C1402.624,252.456 1405.3456,255.372 1405.3456,260.6208 L1405.3456,345.5736 C1405.3456,379.5936 1378.5184,392.424 1354.024,392.424 C1342.9432,392.424 1331.8624,390.0912 1325.0584,387.1752 C1320.004,385.0368 1318.6432,381.732 1320.7816,376.6776 L1322.3368,372.2064 C1324.4752,367.3464 1327.3912,365.9856 1332.64,367.7352 C1337.3056,369.4848 1343.5264,371.4288 1352.6632,371.4288 C1367.8264,371.4288 1380.6568,365.0136 1380.6568,347.3232 L1380.6568,340.996869 Z M1358.3008,328.8552 C1369.9648,328.8552 1381.24,322.0512 1381.24,299.8896 C1381.24,277.1448 1369.9648,271.1184 1357.1344,271.1184 C1341.7768,271.1184 1333.4176,282.0048 1333.4176,298.3344 C1333.4176,316.2192 1342.36,328.8552 1358.3008,328.8552 Z M1429.84,343.4352 C1429.84,348.8784 1432.756,351.6 1438.0048,351.6 L1446.364,351.6 C1451.8072,351.6 1454.5288,348.8784 1454.5288,343.4352 L1454.5288,305.5272 C1454.5288,286.6704 1465.804,272.6736 1483.1056,272.6736 C1495.5472,272.6736 1498.6576,280.8384 1498.6576,292.8912 L1498.6576,343.4352 C1498.6576,348.8784 1501.3792,351.6 1506.8224,351.6 L1515.1816,351.6 C1520.4304,351.6 1523.3464,348.8784 1523.3464,343.4352 L1523.3464,287.8368 C1523.3464,261.5928 1510.7104,250.1232 1488.7432,250.1232 C1471.636,250.1232 1459.1944,260.6208 1454.3344,270.1464 L1453.9456,270.1464 C1453.9456,270.1464 1454.5288,266.6472 1454.5288,261.7872 L1454.5288,221.7408 C1454.5288,216.492 1451.8072,213.576 1446.364,213.576 L1438.0048,213.576 C1432.756,213.576 1429.84,216.492 1429.84,221.7408 L1429.84,343.4352 Z M1551.7288,316.2192 C1551.7288,343.0464 1572.724,352.572 1590.4144,352.572 C1597.2184,352.572 1600.5232,350.2392 1600.5232,344.4072 L1600.5232,338.3808 C1600.5232,332.9376 1598.3848,330.9936 1592.3584,330.4104 C1585.5544,329.6328 1576.4176,326.7168 1576.4176,311.9424 L1576.4176,273.4512 L1590.9976,273.4512 C1596.052,273.4512 1598.968,270.7296 1598.968,265.2864 L1598.968,261.9816 C1598.968,256.7328 1596.052,253.8168 1590.8032,253.8168 L1576.4176,253.8168 L1576.4176,233.5992 C1576.4176,228.3504 1573.5016,225.4344 1568.2528,225.4344 L1560.4768,225.4344 C1555.228,225.4344 1552.312,228.3504 1552.312,233.5992 L1552.312,253.8168 L1546.6744,253.8168 C1541.2312,253.8168 1538.5096,256.7328 1538.5096,261.9816 L1538.5096,265.2864 C1538.5096,270.7296 1541.2312,273.4512 1546.48,273.4512 L1551.7288,273.4512 L1551.7288,316.2192 Z" id="InSight" fill="#093263"></path>
            <path d="M702.323947,313.450828 C701.706362,315.026657 701.926586,315.927131 701.926586,315.927131 L702.73567,327.618925 C702.333522,343.616708 695.334231,348.847121 695.334231,348.847121 L705.234732,412.57482 C693.974588,408.517897 683.418202,403.081524 673.761862,396.5004 L669.644632,350.518746 C669.644632,350.518746 667.432818,349.402733 663.033127,347.376667 C658.643011,345.35539 654.042246,339.674739 652.869314,337.730099 C651.72032,335.780668 649.001033,330.329926 642.389528,325.339001 C635.792386,320.343286 635.155651,322.728584 633.41301,319.696669 C631.660793,316.674333 636.050909,314.76801 636.050909,314.76801 C636.050909,314.76801 648.249399,312.387502 658.556836,325.252785 C658.556836,325.252785 658.868022,325.17136 659.42337,325.094723 L659.566994,324.606168 C659.437732,324.610958 660.534064,316.602487 660.342565,314.97397 C660.084041,312.809 659.145696,310.725457 659.145696,310.725457 L648.699422,286.082164 C648.699422,286.082164 646.707832,281.929446 650.403764,279.984805 C654.094908,278.040164 656.110436,281.388203 656.110436,281.388203 C656.110436,281.388203 667.179082,303.521664 668.428613,306.261404 C669.678144,308.996355 671.344186,305.461515 671.344186,305.461515 L667.356218,275.884774 C667.356218,275.884774 666.207224,271.051911 671.392061,269.969426 C676.576898,268.896521 677.031708,276.584079 677.031708,276.584079 C677.031708,276.584079 680.521779,302.046419 680.990951,305.001699 C681.464912,307.952188 683.083079,305.102283 683.083079,305.102283 C683.083079,305.102283 686.984872,280.612263 687.363083,278.021005 C687.755656,275.424958 688.559952,272.555894 692.389933,272.680428 C696.219914,272.800172 695.693292,281.0625 695.693292,281.0625 C695.693292,281.0625 692.768144,305.916542 692.638882,307.779757 C692.514407,309.647762 693.735214,309.154417 693.735214,309.154417 C693.735214,309.154417 703.008556,290.024133 703.764977,288.663842 C704.530973,287.293972 706.019879,284.338693 709.782835,285.861835 C713.541004,287.375398 709.806773,295.685624 709.806773,295.685624 C709.806773,295.685624 702.951106,311.884577 702.323947,313.450828 Z M871.96339,300.47059 C868.784505,298.291251 866.792915,300.734026 865.811483,301.83088 C864.83005,302.937314 852.334736,318.805774 852.334736,318.805774 C852.334736,318.805774 851.104355,319.006944 851.602252,317.311371 C852.10015,315.606218 859.879799,293.156633 859.879799,293.156633 C859.879799,293.156633 862.043738,285.588819 858.524943,284.688345 C855.006148,283.787871 853.670442,286.292913 852.770396,288.615945 C851.903863,290.934186 843.291193,312.861688 843.291193,312.861688 C843.291193,312.861688 841.194278,315.179929 841.376202,312.358763 C841.538977,309.523228 843.487479,285.18169 843.487479,285.18169 C843.487479,285.18169 844.636474,277.958738 839.604836,277.896472 C834.563623,277.843784 834.668948,282.561694 834.668948,282.561694 L832.327872,310.806882 C832.327872,310.806882 830.05382,313.752582 829.455386,310.960155 C828.856951,308.158148 823.097617,285.36849 823.097617,285.36849 C823.097617,285.36849 821.919898,281.84323 818.094704,282.896976 C814.26951,283.945933 815.270093,288.204026 815.270093,288.204026 L819.937882,313.192181 C819.937882,313.192181 820.387905,315.309253 820.186831,317.373637 C820.038419,318.8872 817.505844,326.13889 817.505844,326.13889 C817.299983,326.114941 817.271258,326.569968 817.271258,326.569968 C816.739848,326.53165 816.428662,326.53644 816.428662,326.53644 C809.491609,312.492876 797.695267,312.215071 797.695267,312.215071 C797.695267,312.215071 793.223763,313.096386 794.229134,316.252835 C795.229716,319.428443 796.316473,317.349689 801.419923,323.322514 C806.532948,329.300129 807.945254,334.913722 808.620288,336.954158 C809.304897,338.994594 812.411969,345.216487 816.083964,347.975386 C819.746383,350.748654 821.570412,352.243058 821.570412,352.243058 L814.508884,407.516838 C825.041332,402.564231 834.812572,396.351918 843.645466,389.100228 L845.718444,355.93117 C845.718444,355.93117 853.277869,352.516074 856.911564,337.754047 L858.539306,326.747189 C858.539306,326.747189 858.520156,325.865874 859.424989,324.534322 C860.320247,323.19798 869.981375,309.580705 869.981375,309.580705 C869.981375,309.580705 875.147062,302.640349 871.96339,300.47059 Z M820.153319,213.076709 C814.370047,209.905891 811.382662,214.384312 809.884182,216.439117 C808.390489,218.489133 789.733693,247.610847 789.733693,247.610847 C789.733693,247.610847 787.675078,248.171248 788.24,245.187231 C788.795348,242.193633 798.312851,202.620672 798.312851,202.620672 C798.312851,202.620672 800.735314,189.372208 794.583407,188.433416 C788.431499,187.504204 786.559596,191.982625 785.444114,196.092236 C784.323845,200.197056 773.317436,239.022815 773.317436,239.022815 C773.317436,239.022815 770.143339,243.319226 769.961415,238.462414 C769.779491,233.605601 769.032645,191.795825 769.032645,191.795825 C769.032645,191.795825 769.779491,179.284983 761.190758,180.032185 C752.606813,180.779387 753.540371,188.811807 753.540371,188.811807 L754.282429,237.341611 C754.282429,237.341611 750.921621,242.749245 749.427928,238.088813 C747.939023,233.418801 734.318652,195.527044 734.318652,195.527044 C734.318652,195.527044 731.70469,189.73623 725.361284,192.164636 C719.017877,194.593042 721.440341,201.68667 721.440341,201.68667 L733.571806,243.501237 C733.571806,243.501237 734.687288,247.050445 734.687288,250.590075 C734.687288,254.139284 731.608941,265.96998 731.608941,265.96998 C731.273817,265.96519 731.273817,266.745921 731.273817,266.745921 C730.364197,266.774659 729.842362,266.841716 729.842362,266.841716 C715.671431,244.061638 695.516155,245.556042 695.516155,245.556042 C695.516155,245.556042 688.052479,247.797647 690.307381,253.023271 C692.54792,258.248894 694.036825,254.522464 703.74104,263.848118 C713.440467,273.183352 716.801276,282.518586 718.294968,285.876204 C719.788661,289.243403 726.132068,299.321048 732.848897,303.421079 C739.556152,307.53069 742.921748,309.772295 742.921748,309.772295 L739.704563,420.315065 C744.329266,420.765302 749.020993,421 753.770169,421 C765.738861,421 777.358066,419.534335 788.436287,416.789805 L784.71163,312.013901 C784.71163,312.013901 797.029807,304.925063 800.759252,279.160967 L801.688022,260.116899 C801.688022,260.116899 801.506098,258.622495 802.798717,256.194089 C804.110485,253.775262 818.286203,228.945169 818.286203,228.945169 C818.286203,228.945169 825.931803,216.252317 820.153319,213.076709 Z" id="Shape" fill="#1C9AFF" fill-rule="nonzero"></path>
            <path d="M1051.13752,488.072921 L937.499533,415.306139 C926.809231,408.318086 914.033177,407.026178 902.74788,410.686586 L901.806348,412.115516 L874.907326,394.51815 C912.293959,316.462056 887.06877,220.919517 812.550502,172.166267 C731.310748,119.021831 622.223902,141.636762 568.981623,222.713835 C515.687036,303.830057 538.362245,412.670123 619.608538,465.821084 C694.133344,514.587384 792.006816,499.560787 848.825606,434.214988 L875.718089,451.812354 L874.979249,452.941143 C876.116932,464.724919 882.393807,475.914938 893.084108,482.909516 L1006.74171,555.656723 C1025.4481,567.923333 1050.57522,562.683925 1062.8282,544.016493 C1075.09426,525.37516 1069.87661,500.313432 1051.13752,488.072921 Z M835.814168,397.304237 C792.471043,463.263365 703.718654,481.695904 637.608783,438.462628 C571.511988,395.209778 553.067131,306.616144 596.384103,240.670065 C639.720689,174.717461 728.460001,156.317545 794.543719,199.550821 C860.679744,242.803672 879.150755,331.364682 835.814168,397.304237 Z" id="Shape" fill="#093263" fill-rule="nonzero" transform="translate(804.802711, 352.850591) scale(1, -1) rotate(-75.000000) translate(-804.802711, -352.850591) "></path>
        </g>
    </g>
</svg>