<svg xmlns="http://www.w3.org/2000/svg" viewBox="0 0 13 21.25" x="0px" y="0px"><title>Ресурс 1</title><g data-name="Слой 2"><g data-name="Слой 1"><path d="M6.5,4H3.41L5.71,1.71A1,1,0,0,0,4.29.29l-4,4a1,1,0,0,0,0,1.41l4,4A1,1,0,0,0,5.71,8.29L3.41,6H6.5A4.5,4.5,0,1,1,2,10.5a1,1,0,0,0-2,0A6.5,6.5,0,1,0,6.5,4Z"/></g></g><text x="0" y="32" fill="#000000" font-size="5px" font-weight="bold" font-family="'Helvetica Neue', Helvetica, Arial-Unicode, Arial, Sans-serif">Created by Makarenko Andrey</text><text x="0" y="37" fill="#000000" font-size="5px" font-weight="bold" font-family="'Helvetica Neue', Helvetica, Arial-Unicode, Arial, Sans-serif">from the Noun Project</text></svg>